M48
; DRILL file KiCad 10.0.6 date 2026-09-30T09:42:59
; FORMAT={-:-/ absolute / metric / decimal}
; #@! TF.CreationDate,2026-09-30T09:42:59+05:30
; #@! TF.GenerationSoftware,Kicad,Pcbnew,10.0.6
; #@! TF.FileFunction,Plated,1,2,PTH
FMAT,2
METRIC
; #@! TA.AperFunction,Plated,PTH,ComponentDrill
T1C0.200
; #@! TA.AperFunction,Plated,PTH,ViaDrill
T2C0.300
; #@! TA.AperFunction,Plated,PTH,ComponentDrill
T3C0.800
; #@! TA.AperFunction,Plated,PTH,ComponentDrill
T4C0.900
; #@! TA.AperFunction,Plated,PTH,ComponentDrill
T5C1.000
; #@! TA.AperFunction,Plated,PTH,ComponentDrill
T6C1.100
%
G90
G05
T1
X83.688Y-99.26
X83.688Y-100.66
X84.388Y-98.56
X84.388Y-99.96
X84.388Y-101.36
X85.087Y-99.26
X85.087Y-100.66
X85.787Y-98.56
X85.787Y-99.96
X85.787Y-101.36
X86.487Y-99.26
X86.487Y-100.66
T2
X52.462Y-87.875
X53.087Y-116.5
X55.737Y-99.0
X56.938Y-99.0
X57.337Y-87.15
X57.337Y-88.35
X57.387Y-94.25
X57.837Y-95.9
X57.837Y-97.25
X58.087Y-103.562
X58.587Y-96.5
X59.087Y-90.0
X60.181Y-97.093
X62.712Y-135.375
X63.087Y-131.5
X64.312Y-131.5
X65.087Y-95.0
X65.087Y-97.75
X65.087Y-99.75
X65.337Y-93.0
X66.837Y-107.5
X67.337Y-116.5
X67.837Y-93.75
X67.837Y-97.625
X67.837Y-98.75
X69.337Y-131.5
X69.462Y-136.375
X70.587Y-116.5
X71.087Y-97.0
X72.587Y-112.75
X72.638Y-131.75
X72.638Y-136.25
X73.237Y-96.923
X73.237Y-101.0
X73.237Y-101.8
X73.237Y-103.75
X73.943Y-95.606
X74.438Y-103.75
X74.583Y-106.5
X74.583Y-112.254
X74.587Y-101.75
X74.837Y-100.75
X75.837Y-107.5
X76.337Y-106.81
X76.427Y-96.089
X77.837Y-92.25
X78.087Y-116.0
X78.682Y-114.656
X78.837Y-113.0
X79.837Y-131.75
X83.312Y-127.155
X84.337Y-117.25
X85.091Y-124.997
X85.638Y-127.0
X86.696Y-124.908
X86.837Y-127.0
X88.337Y-121.25
X89.087Y-112.0
X92.78Y-119.9
X92.837Y-118.7
X92.837Y-127.0
X94.737Y-111.75
X95.337Y-92.25
X95.369Y-116.532
X96.087Y-111.75
X96.218Y-117.381
X97.119Y-95.619
X97.137Y-122.201
X97.137Y-124.299
X97.75Y-97.75
X97.837Y-130.3
X97.837Y-132.25
X98.5Y-92.25
X101.0Y-97.75
X101.75Y-93.25
X101.963Y-104.5
T3
X68.037Y-124.75
X71.537Y-124.75
X99.237Y-123.25
X106.837Y-123.25
T4
X53.797Y-135.25
X56.337Y-135.25
T5
X53.337Y-92.67
X53.337Y-95.21
X53.337Y-97.75
X53.337Y-103.75
X53.337Y-106.29
X53.337Y-108.83
X53.337Y-111.37
X90.837Y-135.75
X93.377Y-135.75
X95.917Y-135.75
X106.337Y-108.0
X106.337Y-110.54
X106.337Y-113.08
X106.337Y-115.62
T6
X52.587Y-76.75
X52.587Y-83.25
X57.087Y-76.75
X57.087Y-83.25
X100.587Y-131.5
X100.587Y-136.0
X107.087Y-131.5
X107.087Y-136.0
M30
