%TF.GenerationSoftware,KiCad,Pcbnew,10.0.6*%
%TF.CreationDate,2026-09-30T09:41:38+05:30*%
%TF.ProjectId,PCB,5043422e-6b69-4636-9164-5f7063625858,rev?*%
%TF.SameCoordinates,Original*%
%TF.FileFunction,Legend,Top*%
%TF.FilePolarity,Positive*%
%FSLAX46Y46*%
G04 Gerber Fmt 4.6, Leading zero omitted, Abs format (unit mm)*
G04 Created by KiCad (PCBNEW 10.0.6) date 2026-09-30 09:41:38*
%MOMM*%
%LPD*%
G01*
G04 APERTURE LIST*
%ADD10C,0.150000*%
%ADD11C,0.120000*%
G04 APERTURE END LIST*
D10*
X49427800Y-103539160D02*
X49380180Y-103682017D01*
X49380180Y-103682017D02*
X49380180Y-103920112D01*
X49380180Y-103920112D02*
X49427800Y-104015350D01*
X49427800Y-104015350D02*
X49475419Y-104062969D01*
X49475419Y-104062969D02*
X49570657Y-104110588D01*
X49570657Y-104110588D02*
X49665895Y-104110588D01*
X49665895Y-104110588D02*
X49761133Y-104062969D01*
X49761133Y-104062969D02*
X49808752Y-104015350D01*
X49808752Y-104015350D02*
X49856371Y-103920112D01*
X49856371Y-103920112D02*
X49903990Y-103729636D01*
X49903990Y-103729636D02*
X49951609Y-103634398D01*
X49951609Y-103634398D02*
X49999228Y-103586779D01*
X49999228Y-103586779D02*
X50094466Y-103539160D01*
X50094466Y-103539160D02*
X50189704Y-103539160D01*
X50189704Y-103539160D02*
X50284942Y-103586779D01*
X50284942Y-103586779D02*
X50332561Y-103634398D01*
X50332561Y-103634398D02*
X50380180Y-103729636D01*
X50380180Y-103729636D02*
X50380180Y-103967731D01*
X50380180Y-103967731D02*
X50332561Y-104110588D01*
X49903990Y-104539160D02*
X49903990Y-104872493D01*
X49380180Y-105015350D02*
X49380180Y-104539160D01*
X49380180Y-104539160D02*
X50380180Y-104539160D01*
X50380180Y-104539160D02*
X50380180Y-105015350D01*
X49380180Y-105443922D02*
X50380180Y-105443922D01*
X50380180Y-105443922D02*
X49380180Y-106015350D01*
X49380180Y-106015350D02*
X50380180Y-106015350D01*
X49427800Y-106443922D02*
X49380180Y-106586779D01*
X49380180Y-106586779D02*
X49380180Y-106824874D01*
X49380180Y-106824874D02*
X49427800Y-106920112D01*
X49427800Y-106920112D02*
X49475419Y-106967731D01*
X49475419Y-106967731D02*
X49570657Y-107015350D01*
X49570657Y-107015350D02*
X49665895Y-107015350D01*
X49665895Y-107015350D02*
X49761133Y-106967731D01*
X49761133Y-106967731D02*
X49808752Y-106920112D01*
X49808752Y-106920112D02*
X49856371Y-106824874D01*
X49856371Y-106824874D02*
X49903990Y-106634398D01*
X49903990Y-106634398D02*
X49951609Y-106539160D01*
X49951609Y-106539160D02*
X49999228Y-106491541D01*
X49999228Y-106491541D02*
X50094466Y-106443922D01*
X50094466Y-106443922D02*
X50189704Y-106443922D01*
X50189704Y-106443922D02*
X50284942Y-106491541D01*
X50284942Y-106491541D02*
X50332561Y-106539160D01*
X50332561Y-106539160D02*
X50380180Y-106634398D01*
X50380180Y-106634398D02*
X50380180Y-106872493D01*
X50380180Y-106872493D02*
X50332561Y-107015350D01*
X50380180Y-107634398D02*
X50380180Y-107824874D01*
X50380180Y-107824874D02*
X50332561Y-107920112D01*
X50332561Y-107920112D02*
X50237323Y-108015350D01*
X50237323Y-108015350D02*
X50046847Y-108062969D01*
X50046847Y-108062969D02*
X49713514Y-108062969D01*
X49713514Y-108062969D02*
X49523038Y-108015350D01*
X49523038Y-108015350D02*
X49427800Y-107920112D01*
X49427800Y-107920112D02*
X49380180Y-107824874D01*
X49380180Y-107824874D02*
X49380180Y-107634398D01*
X49380180Y-107634398D02*
X49427800Y-107539160D01*
X49427800Y-107539160D02*
X49523038Y-107443922D01*
X49523038Y-107443922D02*
X49713514Y-107396303D01*
X49713514Y-107396303D02*
X50046847Y-107396303D01*
X50046847Y-107396303D02*
X50237323Y-107443922D01*
X50237323Y-107443922D02*
X50332561Y-107539160D01*
X50332561Y-107539160D02*
X50380180Y-107634398D01*
X49380180Y-109062969D02*
X49856371Y-108729636D01*
X49380180Y-108491541D02*
X50380180Y-108491541D01*
X50380180Y-108491541D02*
X50380180Y-108872493D01*
X50380180Y-108872493D02*
X50332561Y-108967731D01*
X50332561Y-108967731D02*
X50284942Y-109015350D01*
X50284942Y-109015350D02*
X50189704Y-109062969D01*
X50189704Y-109062969D02*
X50046847Y-109062969D01*
X50046847Y-109062969D02*
X49951609Y-109015350D01*
X49951609Y-109015350D02*
X49903990Y-108967731D01*
X49903990Y-108967731D02*
X49856371Y-108872493D01*
X49856371Y-108872493D02*
X49856371Y-108491541D01*
X49380180Y-110253446D02*
X50380180Y-110253446D01*
X49380180Y-110729636D02*
X50380180Y-110729636D01*
X50380180Y-110729636D02*
X49380180Y-111301064D01*
X49380180Y-111301064D02*
X50380180Y-111301064D01*
X49880180Y-94336779D02*
X50880180Y-94336779D01*
X51118276Y-94765350D02*
X51165895Y-94860588D01*
X51165895Y-94860588D02*
X51165895Y-95003445D01*
X51165895Y-95003445D02*
X51118276Y-95098683D01*
X51118276Y-95098683D02*
X51023038Y-95146302D01*
X51023038Y-95146302D02*
X50927800Y-95146302D01*
X50927800Y-95146302D02*
X50832561Y-95098683D01*
X50832561Y-95098683D02*
X50499228Y-94765350D01*
X50499228Y-94765350D02*
X50499228Y-95146302D01*
X49975419Y-96146302D02*
X49927800Y-96098683D01*
X49927800Y-96098683D02*
X49880180Y-95955826D01*
X49880180Y-95955826D02*
X49880180Y-95860588D01*
X49880180Y-95860588D02*
X49927800Y-95717731D01*
X49927800Y-95717731D02*
X50023038Y-95622493D01*
X50023038Y-95622493D02*
X50118276Y-95574874D01*
X50118276Y-95574874D02*
X50308752Y-95527255D01*
X50308752Y-95527255D02*
X50451609Y-95527255D01*
X50451609Y-95527255D02*
X50642085Y-95574874D01*
X50642085Y-95574874D02*
X50737323Y-95622493D01*
X50737323Y-95622493D02*
X50832561Y-95717731D01*
X50832561Y-95717731D02*
X50880180Y-95860588D01*
X50880180Y-95860588D02*
X50880180Y-95955826D01*
X50880180Y-95955826D02*
X50832561Y-96098683D01*
X50832561Y-96098683D02*
X50784942Y-96146302D01*
X73420833Y-133789580D02*
X73373214Y-133837200D01*
X73373214Y-133837200D02*
X73230357Y-133884819D01*
X73230357Y-133884819D02*
X73135119Y-133884819D01*
X73135119Y-133884819D02*
X72992262Y-133837200D01*
X72992262Y-133837200D02*
X72897024Y-133741961D01*
X72897024Y-133741961D02*
X72849405Y-133646723D01*
X72849405Y-133646723D02*
X72801786Y-133456247D01*
X72801786Y-133456247D02*
X72801786Y-133313390D01*
X72801786Y-133313390D02*
X72849405Y-133122914D01*
X72849405Y-133122914D02*
X72897024Y-133027676D01*
X72897024Y-133027676D02*
X72992262Y-132932438D01*
X72992262Y-132932438D02*
X73135119Y-132884819D01*
X73135119Y-132884819D02*
X73230357Y-132884819D01*
X73230357Y-132884819D02*
X73373214Y-132932438D01*
X73373214Y-132932438D02*
X73420833Y-132980057D01*
X74325595Y-132884819D02*
X73849405Y-132884819D01*
X73849405Y-132884819D02*
X73801786Y-133361009D01*
X73801786Y-133361009D02*
X73849405Y-133313390D01*
X73849405Y-133313390D02*
X73944643Y-133265771D01*
X73944643Y-133265771D02*
X74182738Y-133265771D01*
X74182738Y-133265771D02*
X74277976Y-133313390D01*
X74277976Y-133313390D02*
X74325595Y-133361009D01*
X74325595Y-133361009D02*
X74373214Y-133456247D01*
X74373214Y-133456247D02*
X74373214Y-133694342D01*
X74373214Y-133694342D02*
X74325595Y-133789580D01*
X74325595Y-133789580D02*
X74277976Y-133837200D01*
X74277976Y-133837200D02*
X74182738Y-133884819D01*
X74182738Y-133884819D02*
X73944643Y-133884819D01*
X73944643Y-133884819D02*
X73849405Y-133837200D01*
X73849405Y-133837200D02*
X73801786Y-133789580D01*
X87670833Y-117604819D02*
X87337500Y-117128628D01*
X87099405Y-117604819D02*
X87099405Y-116604819D01*
X87099405Y-116604819D02*
X87480357Y-116604819D01*
X87480357Y-116604819D02*
X87575595Y-116652438D01*
X87575595Y-116652438D02*
X87623214Y-116700057D01*
X87623214Y-116700057D02*
X87670833Y-116795295D01*
X87670833Y-116795295D02*
X87670833Y-116938152D01*
X87670833Y-116938152D02*
X87623214Y-117033390D01*
X87623214Y-117033390D02*
X87575595Y-117081009D01*
X87575595Y-117081009D02*
X87480357Y-117128628D01*
X87480357Y-117128628D02*
X87099405Y-117128628D01*
X88527976Y-116938152D02*
X88527976Y-117604819D01*
X88289881Y-116557200D02*
X88051786Y-117271485D01*
X88051786Y-117271485D02*
X88670833Y-117271485D01*
X73420833Y-138289580D02*
X73373214Y-138337200D01*
X73373214Y-138337200D02*
X73230357Y-138384819D01*
X73230357Y-138384819D02*
X73135119Y-138384819D01*
X73135119Y-138384819D02*
X72992262Y-138337200D01*
X72992262Y-138337200D02*
X72897024Y-138241961D01*
X72897024Y-138241961D02*
X72849405Y-138146723D01*
X72849405Y-138146723D02*
X72801786Y-137956247D01*
X72801786Y-137956247D02*
X72801786Y-137813390D01*
X72801786Y-137813390D02*
X72849405Y-137622914D01*
X72849405Y-137622914D02*
X72897024Y-137527676D01*
X72897024Y-137527676D02*
X72992262Y-137432438D01*
X72992262Y-137432438D02*
X73135119Y-137384819D01*
X73135119Y-137384819D02*
X73230357Y-137384819D01*
X73230357Y-137384819D02*
X73373214Y-137432438D01*
X73373214Y-137432438D02*
X73420833Y-137480057D01*
X74277976Y-137384819D02*
X74087500Y-137384819D01*
X74087500Y-137384819D02*
X73992262Y-137432438D01*
X73992262Y-137432438D02*
X73944643Y-137480057D01*
X73944643Y-137480057D02*
X73849405Y-137622914D01*
X73849405Y-137622914D02*
X73801786Y-137813390D01*
X73801786Y-137813390D02*
X73801786Y-138194342D01*
X73801786Y-138194342D02*
X73849405Y-138289580D01*
X73849405Y-138289580D02*
X73897024Y-138337200D01*
X73897024Y-138337200D02*
X73992262Y-138384819D01*
X73992262Y-138384819D02*
X74182738Y-138384819D01*
X74182738Y-138384819D02*
X74277976Y-138337200D01*
X74277976Y-138337200D02*
X74325595Y-138289580D01*
X74325595Y-138289580D02*
X74373214Y-138194342D01*
X74373214Y-138194342D02*
X74373214Y-137956247D01*
X74373214Y-137956247D02*
X74325595Y-137861009D01*
X74325595Y-137861009D02*
X74277976Y-137813390D01*
X74277976Y-137813390D02*
X74182738Y-137765771D01*
X74182738Y-137765771D02*
X73992262Y-137765771D01*
X73992262Y-137765771D02*
X73897024Y-137813390D01*
X73897024Y-137813390D02*
X73849405Y-137861009D01*
X73849405Y-137861009D02*
X73801786Y-137956247D01*
X54349405Y-119454819D02*
X54349405Y-118454819D01*
X54349405Y-118454819D02*
X54587500Y-118454819D01*
X54587500Y-118454819D02*
X54730357Y-118502438D01*
X54730357Y-118502438D02*
X54825595Y-118597676D01*
X54825595Y-118597676D02*
X54873214Y-118692914D01*
X54873214Y-118692914D02*
X54920833Y-118883390D01*
X54920833Y-118883390D02*
X54920833Y-119026247D01*
X54920833Y-119026247D02*
X54873214Y-119216723D01*
X54873214Y-119216723D02*
X54825595Y-119311961D01*
X54825595Y-119311961D02*
X54730357Y-119407200D01*
X54730357Y-119407200D02*
X54587500Y-119454819D01*
X54587500Y-119454819D02*
X54349405Y-119454819D01*
X55873214Y-119454819D02*
X55301786Y-119454819D01*
X55587500Y-119454819D02*
X55587500Y-118454819D01*
X55587500Y-118454819D02*
X55492262Y-118597676D01*
X55492262Y-118597676D02*
X55397024Y-118692914D01*
X55397024Y-118692914D02*
X55301786Y-118740533D01*
X58420833Y-100854819D02*
X58087500Y-100378628D01*
X57849405Y-100854819D02*
X57849405Y-99854819D01*
X57849405Y-99854819D02*
X58230357Y-99854819D01*
X58230357Y-99854819D02*
X58325595Y-99902438D01*
X58325595Y-99902438D02*
X58373214Y-99950057D01*
X58373214Y-99950057D02*
X58420833Y-100045295D01*
X58420833Y-100045295D02*
X58420833Y-100188152D01*
X58420833Y-100188152D02*
X58373214Y-100283390D01*
X58373214Y-100283390D02*
X58325595Y-100331009D01*
X58325595Y-100331009D02*
X58230357Y-100378628D01*
X58230357Y-100378628D02*
X57849405Y-100378628D01*
X59373214Y-100854819D02*
X58801786Y-100854819D01*
X59087500Y-100854819D02*
X59087500Y-99854819D01*
X59087500Y-99854819D02*
X58992262Y-99997676D01*
X58992262Y-99997676D02*
X58897024Y-100092914D01*
X58897024Y-100092914D02*
X58801786Y-100140533D01*
X60192319Y-105238094D02*
X59192319Y-105238094D01*
X59192319Y-105238094D02*
X59192319Y-104999999D01*
X59192319Y-104999999D02*
X59239938Y-104857142D01*
X59239938Y-104857142D02*
X59335176Y-104761904D01*
X59335176Y-104761904D02*
X59430414Y-104714285D01*
X59430414Y-104714285D02*
X59620890Y-104666666D01*
X59620890Y-104666666D02*
X59763747Y-104666666D01*
X59763747Y-104666666D02*
X59954223Y-104714285D01*
X59954223Y-104714285D02*
X60049461Y-104761904D01*
X60049461Y-104761904D02*
X60144700Y-104857142D01*
X60144700Y-104857142D02*
X60192319Y-104999999D01*
X60192319Y-104999999D02*
X60192319Y-105238094D01*
X59287557Y-104285713D02*
X59239938Y-104238094D01*
X59239938Y-104238094D02*
X59192319Y-104142856D01*
X59192319Y-104142856D02*
X59192319Y-103904761D01*
X59192319Y-103904761D02*
X59239938Y-103809523D01*
X59239938Y-103809523D02*
X59287557Y-103761904D01*
X59287557Y-103761904D02*
X59382795Y-103714285D01*
X59382795Y-103714285D02*
X59478033Y-103714285D01*
X59478033Y-103714285D02*
X59620890Y-103761904D01*
X59620890Y-103761904D02*
X60192319Y-104333332D01*
X60192319Y-104333332D02*
X60192319Y-103714285D01*
X90442319Y-126166666D02*
X89966128Y-126499999D01*
X90442319Y-126738094D02*
X89442319Y-126738094D01*
X89442319Y-126738094D02*
X89442319Y-126357142D01*
X89442319Y-126357142D02*
X89489938Y-126261904D01*
X89489938Y-126261904D02*
X89537557Y-126214285D01*
X89537557Y-126214285D02*
X89632795Y-126166666D01*
X89632795Y-126166666D02*
X89775652Y-126166666D01*
X89775652Y-126166666D02*
X89870890Y-126214285D01*
X89870890Y-126214285D02*
X89918509Y-126261904D01*
X89918509Y-126261904D02*
X89966128Y-126357142D01*
X89966128Y-126357142D02*
X89966128Y-126738094D01*
X89870890Y-125595237D02*
X89823271Y-125690475D01*
X89823271Y-125690475D02*
X89775652Y-125738094D01*
X89775652Y-125738094D02*
X89680414Y-125785713D01*
X89680414Y-125785713D02*
X89632795Y-125785713D01*
X89632795Y-125785713D02*
X89537557Y-125738094D01*
X89537557Y-125738094D02*
X89489938Y-125690475D01*
X89489938Y-125690475D02*
X89442319Y-125595237D01*
X89442319Y-125595237D02*
X89442319Y-125404761D01*
X89442319Y-125404761D02*
X89489938Y-125309523D01*
X89489938Y-125309523D02*
X89537557Y-125261904D01*
X89537557Y-125261904D02*
X89632795Y-125214285D01*
X89632795Y-125214285D02*
X89680414Y-125214285D01*
X89680414Y-125214285D02*
X89775652Y-125261904D01*
X89775652Y-125261904D02*
X89823271Y-125309523D01*
X89823271Y-125309523D02*
X89870890Y-125404761D01*
X89870890Y-125404761D02*
X89870890Y-125595237D01*
X89870890Y-125595237D02*
X89918509Y-125690475D01*
X89918509Y-125690475D02*
X89966128Y-125738094D01*
X89966128Y-125738094D02*
X90061366Y-125785713D01*
X90061366Y-125785713D02*
X90251842Y-125785713D01*
X90251842Y-125785713D02*
X90347080Y-125738094D01*
X90347080Y-125738094D02*
X90394700Y-125690475D01*
X90394700Y-125690475D02*
X90442319Y-125595237D01*
X90442319Y-125595237D02*
X90442319Y-125404761D01*
X90442319Y-125404761D02*
X90394700Y-125309523D01*
X90394700Y-125309523D02*
X90347080Y-125261904D01*
X90347080Y-125261904D02*
X90251842Y-125214285D01*
X90251842Y-125214285D02*
X90061366Y-125214285D01*
X90061366Y-125214285D02*
X89966128Y-125261904D01*
X89966128Y-125261904D02*
X89918509Y-125309523D01*
X89918509Y-125309523D02*
X89870890Y-125404761D01*
X101870833Y-128904819D02*
X101394643Y-128904819D01*
X101394643Y-128904819D02*
X101394643Y-127904819D01*
X102204167Y-128904819D02*
X102204167Y-127904819D01*
X102204167Y-127904819D02*
X102442262Y-127904819D01*
X102442262Y-127904819D02*
X102585119Y-127952438D01*
X102585119Y-127952438D02*
X102680357Y-128047676D01*
X102680357Y-128047676D02*
X102727976Y-128142914D01*
X102727976Y-128142914D02*
X102775595Y-128333390D01*
X102775595Y-128333390D02*
X102775595Y-128476247D01*
X102775595Y-128476247D02*
X102727976Y-128666723D01*
X102727976Y-128666723D02*
X102680357Y-128761961D01*
X102680357Y-128761961D02*
X102585119Y-128857200D01*
X102585119Y-128857200D02*
X102442262Y-128904819D01*
X102442262Y-128904819D02*
X102204167Y-128904819D01*
X103775595Y-128904819D02*
X103442262Y-128428628D01*
X103204167Y-128904819D02*
X103204167Y-127904819D01*
X103204167Y-127904819D02*
X103585119Y-127904819D01*
X103585119Y-127904819D02*
X103680357Y-127952438D01*
X103680357Y-127952438D02*
X103727976Y-128000057D01*
X103727976Y-128000057D02*
X103775595Y-128095295D01*
X103775595Y-128095295D02*
X103775595Y-128238152D01*
X103775595Y-128238152D02*
X103727976Y-128333390D01*
X103727976Y-128333390D02*
X103680357Y-128381009D01*
X103680357Y-128381009D02*
X103585119Y-128428628D01*
X103585119Y-128428628D02*
X103204167Y-128428628D01*
X104727976Y-128904819D02*
X104156548Y-128904819D01*
X104442262Y-128904819D02*
X104442262Y-127904819D01*
X104442262Y-127904819D02*
X104347024Y-128047676D01*
X104347024Y-128047676D02*
X104251786Y-128142914D01*
X104251786Y-128142914D02*
X104156548Y-128190533D01*
X51254166Y-100954819D02*
X51254166Y-101669104D01*
X51254166Y-101669104D02*
X51206547Y-101811961D01*
X51206547Y-101811961D02*
X51111309Y-101907200D01*
X51111309Y-101907200D02*
X50968452Y-101954819D01*
X50968452Y-101954819D02*
X50873214Y-101954819D01*
X51635119Y-100954819D02*
X52254166Y-100954819D01*
X52254166Y-100954819D02*
X51920833Y-101335771D01*
X51920833Y-101335771D02*
X52063690Y-101335771D01*
X52063690Y-101335771D02*
X52158928Y-101383390D01*
X52158928Y-101383390D02*
X52206547Y-101431009D01*
X52206547Y-101431009D02*
X52254166Y-101526247D01*
X52254166Y-101526247D02*
X52254166Y-101764342D01*
X52254166Y-101764342D02*
X52206547Y-101859580D01*
X52206547Y-101859580D02*
X52158928Y-101907200D01*
X52158928Y-101907200D02*
X52063690Y-101954819D01*
X52063690Y-101954819D02*
X51777976Y-101954819D01*
X51777976Y-101954819D02*
X51682738Y-101907200D01*
X51682738Y-101907200D02*
X51635119Y-101859580D01*
X56670833Y-108454819D02*
X56337500Y-107978628D01*
X56099405Y-108454819D02*
X56099405Y-107454819D01*
X56099405Y-107454819D02*
X56480357Y-107454819D01*
X56480357Y-107454819D02*
X56575595Y-107502438D01*
X56575595Y-107502438D02*
X56623214Y-107550057D01*
X56623214Y-107550057D02*
X56670833Y-107645295D01*
X56670833Y-107645295D02*
X56670833Y-107788152D01*
X56670833Y-107788152D02*
X56623214Y-107883390D01*
X56623214Y-107883390D02*
X56575595Y-107931009D01*
X56575595Y-107931009D02*
X56480357Y-107978628D01*
X56480357Y-107978628D02*
X56099405Y-107978628D01*
X57527976Y-107454819D02*
X57337500Y-107454819D01*
X57337500Y-107454819D02*
X57242262Y-107502438D01*
X57242262Y-107502438D02*
X57194643Y-107550057D01*
X57194643Y-107550057D02*
X57099405Y-107692914D01*
X57099405Y-107692914D02*
X57051786Y-107883390D01*
X57051786Y-107883390D02*
X57051786Y-108264342D01*
X57051786Y-108264342D02*
X57099405Y-108359580D01*
X57099405Y-108359580D02*
X57147024Y-108407200D01*
X57147024Y-108407200D02*
X57242262Y-108454819D01*
X57242262Y-108454819D02*
X57432738Y-108454819D01*
X57432738Y-108454819D02*
X57527976Y-108407200D01*
X57527976Y-108407200D02*
X57575595Y-108359580D01*
X57575595Y-108359580D02*
X57623214Y-108264342D01*
X57623214Y-108264342D02*
X57623214Y-108026247D01*
X57623214Y-108026247D02*
X57575595Y-107931009D01*
X57575595Y-107931009D02*
X57527976Y-107883390D01*
X57527976Y-107883390D02*
X57432738Y-107835771D01*
X57432738Y-107835771D02*
X57242262Y-107835771D01*
X57242262Y-107835771D02*
X57147024Y-107883390D01*
X57147024Y-107883390D02*
X57099405Y-107931009D01*
X57099405Y-107931009D02*
X57051786Y-108026247D01*
X87912319Y-136083333D02*
X88626604Y-136083333D01*
X88626604Y-136083333D02*
X88769461Y-136130952D01*
X88769461Y-136130952D02*
X88864700Y-136226190D01*
X88864700Y-136226190D02*
X88912319Y-136369047D01*
X88912319Y-136369047D02*
X88912319Y-136464285D01*
X87912319Y-135130952D02*
X87912319Y-135607142D01*
X87912319Y-135607142D02*
X88388509Y-135654761D01*
X88388509Y-135654761D02*
X88340890Y-135607142D01*
X88340890Y-135607142D02*
X88293271Y-135511904D01*
X88293271Y-135511904D02*
X88293271Y-135273809D01*
X88293271Y-135273809D02*
X88340890Y-135178571D01*
X88340890Y-135178571D02*
X88388509Y-135130952D01*
X88388509Y-135130952D02*
X88483747Y-135083333D01*
X88483747Y-135083333D02*
X88721842Y-135083333D01*
X88721842Y-135083333D02*
X88817080Y-135130952D01*
X88817080Y-135130952D02*
X88864700Y-135178571D01*
X88864700Y-135178571D02*
X88912319Y-135273809D01*
X88912319Y-135273809D02*
X88912319Y-135511904D01*
X88912319Y-135511904D02*
X88864700Y-135607142D01*
X88864700Y-135607142D02*
X88817080Y-135654761D01*
X58170833Y-96289580D02*
X58123214Y-96337200D01*
X58123214Y-96337200D02*
X57980357Y-96384819D01*
X57980357Y-96384819D02*
X57885119Y-96384819D01*
X57885119Y-96384819D02*
X57742262Y-96337200D01*
X57742262Y-96337200D02*
X57647024Y-96241961D01*
X57647024Y-96241961D02*
X57599405Y-96146723D01*
X57599405Y-96146723D02*
X57551786Y-95956247D01*
X57551786Y-95956247D02*
X57551786Y-95813390D01*
X57551786Y-95813390D02*
X57599405Y-95622914D01*
X57599405Y-95622914D02*
X57647024Y-95527676D01*
X57647024Y-95527676D02*
X57742262Y-95432438D01*
X57742262Y-95432438D02*
X57885119Y-95384819D01*
X57885119Y-95384819D02*
X57980357Y-95384819D01*
X57980357Y-95384819D02*
X58123214Y-95432438D01*
X58123214Y-95432438D02*
X58170833Y-95480057D01*
X58504167Y-95384819D02*
X59170833Y-95384819D01*
X59170833Y-95384819D02*
X58742262Y-96384819D01*
X80920833Y-114304819D02*
X80587500Y-113828628D01*
X80349405Y-114304819D02*
X80349405Y-113304819D01*
X80349405Y-113304819D02*
X80730357Y-113304819D01*
X80730357Y-113304819D02*
X80825595Y-113352438D01*
X80825595Y-113352438D02*
X80873214Y-113400057D01*
X80873214Y-113400057D02*
X80920833Y-113495295D01*
X80920833Y-113495295D02*
X80920833Y-113638152D01*
X80920833Y-113638152D02*
X80873214Y-113733390D01*
X80873214Y-113733390D02*
X80825595Y-113781009D01*
X80825595Y-113781009D02*
X80730357Y-113828628D01*
X80730357Y-113828628D02*
X80349405Y-113828628D01*
X81254167Y-113304819D02*
X81873214Y-113304819D01*
X81873214Y-113304819D02*
X81539881Y-113685771D01*
X81539881Y-113685771D02*
X81682738Y-113685771D01*
X81682738Y-113685771D02*
X81777976Y-113733390D01*
X81777976Y-113733390D02*
X81825595Y-113781009D01*
X81825595Y-113781009D02*
X81873214Y-113876247D01*
X81873214Y-113876247D02*
X81873214Y-114114342D01*
X81873214Y-114114342D02*
X81825595Y-114209580D01*
X81825595Y-114209580D02*
X81777976Y-114257200D01*
X81777976Y-114257200D02*
X81682738Y-114304819D01*
X81682738Y-114304819D02*
X81397024Y-114304819D01*
X81397024Y-114304819D02*
X81301786Y-114257200D01*
X81301786Y-114257200D02*
X81254167Y-114209580D01*
X95142319Y-131166666D02*
X94666128Y-131499999D01*
X95142319Y-131738094D02*
X94142319Y-131738094D01*
X94142319Y-131738094D02*
X94142319Y-131357142D01*
X94142319Y-131357142D02*
X94189938Y-131261904D01*
X94189938Y-131261904D02*
X94237557Y-131214285D01*
X94237557Y-131214285D02*
X94332795Y-131166666D01*
X94332795Y-131166666D02*
X94475652Y-131166666D01*
X94475652Y-131166666D02*
X94570890Y-131214285D01*
X94570890Y-131214285D02*
X94618509Y-131261904D01*
X94618509Y-131261904D02*
X94666128Y-131357142D01*
X94666128Y-131357142D02*
X94666128Y-131738094D01*
X94237557Y-130785713D02*
X94189938Y-130738094D01*
X94189938Y-130738094D02*
X94142319Y-130642856D01*
X94142319Y-130642856D02*
X94142319Y-130404761D01*
X94142319Y-130404761D02*
X94189938Y-130309523D01*
X94189938Y-130309523D02*
X94237557Y-130261904D01*
X94237557Y-130261904D02*
X94332795Y-130214285D01*
X94332795Y-130214285D02*
X94428033Y-130214285D01*
X94428033Y-130214285D02*
X94570890Y-130261904D01*
X94570890Y-130261904D02*
X95142319Y-130833332D01*
X95142319Y-130833332D02*
X95142319Y-130214285D01*
X75542319Y-109661904D02*
X76351842Y-109661904D01*
X76351842Y-109661904D02*
X76447080Y-109614285D01*
X76447080Y-109614285D02*
X76494700Y-109566666D01*
X76494700Y-109566666D02*
X76542319Y-109471428D01*
X76542319Y-109471428D02*
X76542319Y-109280952D01*
X76542319Y-109280952D02*
X76494700Y-109185714D01*
X76494700Y-109185714D02*
X76447080Y-109138095D01*
X76447080Y-109138095D02*
X76351842Y-109090476D01*
X76351842Y-109090476D02*
X75542319Y-109090476D01*
X75542319Y-108709523D02*
X75542319Y-108090476D01*
X75542319Y-108090476D02*
X75923271Y-108423809D01*
X75923271Y-108423809D02*
X75923271Y-108280952D01*
X75923271Y-108280952D02*
X75970890Y-108185714D01*
X75970890Y-108185714D02*
X76018509Y-108138095D01*
X76018509Y-108138095D02*
X76113747Y-108090476D01*
X76113747Y-108090476D02*
X76351842Y-108090476D01*
X76351842Y-108090476D02*
X76447080Y-108138095D01*
X76447080Y-108138095D02*
X76494700Y-108185714D01*
X76494700Y-108185714D02*
X76542319Y-108280952D01*
X76542319Y-108280952D02*
X76542319Y-108566666D01*
X76542319Y-108566666D02*
X76494700Y-108661904D01*
X76494700Y-108661904D02*
X76447080Y-108709523D01*
X67920833Y-138609580D02*
X67873214Y-138657200D01*
X67873214Y-138657200D02*
X67730357Y-138704819D01*
X67730357Y-138704819D02*
X67635119Y-138704819D01*
X67635119Y-138704819D02*
X67492262Y-138657200D01*
X67492262Y-138657200D02*
X67397024Y-138561961D01*
X67397024Y-138561961D02*
X67349405Y-138466723D01*
X67349405Y-138466723D02*
X67301786Y-138276247D01*
X67301786Y-138276247D02*
X67301786Y-138133390D01*
X67301786Y-138133390D02*
X67349405Y-137942914D01*
X67349405Y-137942914D02*
X67397024Y-137847676D01*
X67397024Y-137847676D02*
X67492262Y-137752438D01*
X67492262Y-137752438D02*
X67635119Y-137704819D01*
X67635119Y-137704819D02*
X67730357Y-137704819D01*
X67730357Y-137704819D02*
X67873214Y-137752438D01*
X67873214Y-137752438D02*
X67920833Y-137800057D01*
X68777976Y-138038152D02*
X68777976Y-138704819D01*
X68539881Y-137657200D02*
X68301786Y-138371485D01*
X68301786Y-138371485D02*
X68920833Y-138371485D01*
X58254166Y-133704819D02*
X58254166Y-134419104D01*
X58254166Y-134419104D02*
X58206547Y-134561961D01*
X58206547Y-134561961D02*
X58111309Y-134657200D01*
X58111309Y-134657200D02*
X57968452Y-134704819D01*
X57968452Y-134704819D02*
X57873214Y-134704819D01*
X59158928Y-133704819D02*
X58968452Y-133704819D01*
X58968452Y-133704819D02*
X58873214Y-133752438D01*
X58873214Y-133752438D02*
X58825595Y-133800057D01*
X58825595Y-133800057D02*
X58730357Y-133942914D01*
X58730357Y-133942914D02*
X58682738Y-134133390D01*
X58682738Y-134133390D02*
X58682738Y-134514342D01*
X58682738Y-134514342D02*
X58730357Y-134609580D01*
X58730357Y-134609580D02*
X58777976Y-134657200D01*
X58777976Y-134657200D02*
X58873214Y-134704819D01*
X58873214Y-134704819D02*
X59063690Y-134704819D01*
X59063690Y-134704819D02*
X59158928Y-134657200D01*
X59158928Y-134657200D02*
X59206547Y-134609580D01*
X59206547Y-134609580D02*
X59254166Y-134514342D01*
X59254166Y-134514342D02*
X59254166Y-134276247D01*
X59254166Y-134276247D02*
X59206547Y-134181009D01*
X59206547Y-134181009D02*
X59158928Y-134133390D01*
X59158928Y-134133390D02*
X59063690Y-134085771D01*
X59063690Y-134085771D02*
X58873214Y-134085771D01*
X58873214Y-134085771D02*
X58777976Y-134133390D01*
X58777976Y-134133390D02*
X58730357Y-134181009D01*
X58730357Y-134181009D02*
X58682738Y-134276247D01*
X102504167Y-138407200D02*
X102647024Y-138454819D01*
X102647024Y-138454819D02*
X102885119Y-138454819D01*
X102885119Y-138454819D02*
X102980357Y-138407200D01*
X102980357Y-138407200D02*
X103027976Y-138359580D01*
X103027976Y-138359580D02*
X103075595Y-138264342D01*
X103075595Y-138264342D02*
X103075595Y-138169104D01*
X103075595Y-138169104D02*
X103027976Y-138073866D01*
X103027976Y-138073866D02*
X102980357Y-138026247D01*
X102980357Y-138026247D02*
X102885119Y-137978628D01*
X102885119Y-137978628D02*
X102694643Y-137931009D01*
X102694643Y-137931009D02*
X102599405Y-137883390D01*
X102599405Y-137883390D02*
X102551786Y-137835771D01*
X102551786Y-137835771D02*
X102504167Y-137740533D01*
X102504167Y-137740533D02*
X102504167Y-137645295D01*
X102504167Y-137645295D02*
X102551786Y-137550057D01*
X102551786Y-137550057D02*
X102599405Y-137502438D01*
X102599405Y-137502438D02*
X102694643Y-137454819D01*
X102694643Y-137454819D02*
X102932738Y-137454819D01*
X102932738Y-137454819D02*
X103075595Y-137502438D01*
X103408929Y-137454819D02*
X103647024Y-138454819D01*
X103647024Y-138454819D02*
X103837500Y-137740533D01*
X103837500Y-137740533D02*
X104027976Y-138454819D01*
X104027976Y-138454819D02*
X104266072Y-137454819D01*
X105170833Y-138454819D02*
X104599405Y-138454819D01*
X104885119Y-138454819D02*
X104885119Y-137454819D01*
X104885119Y-137454819D02*
X104789881Y-137597676D01*
X104789881Y-137597676D02*
X104694643Y-137692914D01*
X104694643Y-137692914D02*
X104599405Y-137740533D01*
X85825595Y-128954819D02*
X85825595Y-129764342D01*
X85825595Y-129764342D02*
X85873214Y-129859580D01*
X85873214Y-129859580D02*
X85920833Y-129907200D01*
X85920833Y-129907200D02*
X86016071Y-129954819D01*
X86016071Y-129954819D02*
X86206547Y-129954819D01*
X86206547Y-129954819D02*
X86301785Y-129907200D01*
X86301785Y-129907200D02*
X86349404Y-129859580D01*
X86349404Y-129859580D02*
X86397023Y-129764342D01*
X86397023Y-129764342D02*
X86397023Y-128954819D01*
X86825595Y-129050057D02*
X86873214Y-129002438D01*
X86873214Y-129002438D02*
X86968452Y-128954819D01*
X86968452Y-128954819D02*
X87206547Y-128954819D01*
X87206547Y-128954819D02*
X87301785Y-129002438D01*
X87301785Y-129002438D02*
X87349404Y-129050057D01*
X87349404Y-129050057D02*
X87397023Y-129145295D01*
X87397023Y-129145295D02*
X87397023Y-129240533D01*
X87397023Y-129240533D02*
X87349404Y-129383390D01*
X87349404Y-129383390D02*
X86777976Y-129954819D01*
X86777976Y-129954819D02*
X87397023Y-129954819D01*
X64142319Y-125416666D02*
X64142319Y-125892856D01*
X64142319Y-125892856D02*
X63142319Y-125892856D01*
X64142319Y-124559523D02*
X64142319Y-125130951D01*
X64142319Y-124845237D02*
X63142319Y-124845237D01*
X63142319Y-124845237D02*
X63285176Y-124940475D01*
X63285176Y-124940475D02*
X63380414Y-125035713D01*
X63380414Y-125035713D02*
X63428033Y-125130951D01*
X50994700Y-81333332D02*
X51042319Y-81190475D01*
X51042319Y-81190475D02*
X51042319Y-80952380D01*
X51042319Y-80952380D02*
X50994700Y-80857142D01*
X50994700Y-80857142D02*
X50947080Y-80809523D01*
X50947080Y-80809523D02*
X50851842Y-80761904D01*
X50851842Y-80761904D02*
X50756604Y-80761904D01*
X50756604Y-80761904D02*
X50661366Y-80809523D01*
X50661366Y-80809523D02*
X50613747Y-80857142D01*
X50613747Y-80857142D02*
X50566128Y-80952380D01*
X50566128Y-80952380D02*
X50518509Y-81142856D01*
X50518509Y-81142856D02*
X50470890Y-81238094D01*
X50470890Y-81238094D02*
X50423271Y-81285713D01*
X50423271Y-81285713D02*
X50328033Y-81333332D01*
X50328033Y-81333332D02*
X50232795Y-81333332D01*
X50232795Y-81333332D02*
X50137557Y-81285713D01*
X50137557Y-81285713D02*
X50089938Y-81238094D01*
X50089938Y-81238094D02*
X50042319Y-81142856D01*
X50042319Y-81142856D02*
X50042319Y-80904761D01*
X50042319Y-80904761D02*
X50089938Y-80761904D01*
X50042319Y-80428570D02*
X51042319Y-80190475D01*
X51042319Y-80190475D02*
X50328033Y-79999999D01*
X50328033Y-79999999D02*
X51042319Y-79809523D01*
X51042319Y-79809523D02*
X50042319Y-79571428D01*
X50137557Y-79238094D02*
X50089938Y-79190475D01*
X50089938Y-79190475D02*
X50042319Y-79095237D01*
X50042319Y-79095237D02*
X50042319Y-78857142D01*
X50042319Y-78857142D02*
X50089938Y-78761904D01*
X50089938Y-78761904D02*
X50137557Y-78714285D01*
X50137557Y-78714285D02*
X50232795Y-78666666D01*
X50232795Y-78666666D02*
X50328033Y-78666666D01*
X50328033Y-78666666D02*
X50470890Y-78714285D01*
X50470890Y-78714285D02*
X51042319Y-79285713D01*
X51042319Y-79285713D02*
X51042319Y-78666666D01*
X60170833Y-88609580D02*
X60123214Y-88657200D01*
X60123214Y-88657200D02*
X59980357Y-88704819D01*
X59980357Y-88704819D02*
X59885119Y-88704819D01*
X59885119Y-88704819D02*
X59742262Y-88657200D01*
X59742262Y-88657200D02*
X59647024Y-88561961D01*
X59647024Y-88561961D02*
X59599405Y-88466723D01*
X59599405Y-88466723D02*
X59551786Y-88276247D01*
X59551786Y-88276247D02*
X59551786Y-88133390D01*
X59551786Y-88133390D02*
X59599405Y-87942914D01*
X59599405Y-87942914D02*
X59647024Y-87847676D01*
X59647024Y-87847676D02*
X59742262Y-87752438D01*
X59742262Y-87752438D02*
X59885119Y-87704819D01*
X59885119Y-87704819D02*
X59980357Y-87704819D01*
X59980357Y-87704819D02*
X60123214Y-87752438D01*
X60123214Y-87752438D02*
X60170833Y-87800057D01*
X60742262Y-88133390D02*
X60647024Y-88085771D01*
X60647024Y-88085771D02*
X60599405Y-88038152D01*
X60599405Y-88038152D02*
X60551786Y-87942914D01*
X60551786Y-87942914D02*
X60551786Y-87895295D01*
X60551786Y-87895295D02*
X60599405Y-87800057D01*
X60599405Y-87800057D02*
X60647024Y-87752438D01*
X60647024Y-87752438D02*
X60742262Y-87704819D01*
X60742262Y-87704819D02*
X60932738Y-87704819D01*
X60932738Y-87704819D02*
X61027976Y-87752438D01*
X61027976Y-87752438D02*
X61075595Y-87800057D01*
X61075595Y-87800057D02*
X61123214Y-87895295D01*
X61123214Y-87895295D02*
X61123214Y-87942914D01*
X61123214Y-87942914D02*
X61075595Y-88038152D01*
X61075595Y-88038152D02*
X61027976Y-88085771D01*
X61027976Y-88085771D02*
X60932738Y-88133390D01*
X60932738Y-88133390D02*
X60742262Y-88133390D01*
X60742262Y-88133390D02*
X60647024Y-88181009D01*
X60647024Y-88181009D02*
X60599405Y-88228628D01*
X60599405Y-88228628D02*
X60551786Y-88323866D01*
X60551786Y-88323866D02*
X60551786Y-88514342D01*
X60551786Y-88514342D02*
X60599405Y-88609580D01*
X60599405Y-88609580D02*
X60647024Y-88657200D01*
X60647024Y-88657200D02*
X60742262Y-88704819D01*
X60742262Y-88704819D02*
X60932738Y-88704819D01*
X60932738Y-88704819D02*
X61027976Y-88657200D01*
X61027976Y-88657200D02*
X61075595Y-88609580D01*
X61075595Y-88609580D02*
X61123214Y-88514342D01*
X61123214Y-88514342D02*
X61123214Y-88323866D01*
X61123214Y-88323866D02*
X61075595Y-88228628D01*
X61075595Y-88228628D02*
X61027976Y-88181009D01*
X61027976Y-88181009D02*
X60932738Y-88133390D01*
X68170833Y-130179580D02*
X68123214Y-130227200D01*
X68123214Y-130227200D02*
X67980357Y-130274819D01*
X67980357Y-130274819D02*
X67885119Y-130274819D01*
X67885119Y-130274819D02*
X67742262Y-130227200D01*
X67742262Y-130227200D02*
X67647024Y-130131961D01*
X67647024Y-130131961D02*
X67599405Y-130036723D01*
X67599405Y-130036723D02*
X67551786Y-129846247D01*
X67551786Y-129846247D02*
X67551786Y-129703390D01*
X67551786Y-129703390D02*
X67599405Y-129512914D01*
X67599405Y-129512914D02*
X67647024Y-129417676D01*
X67647024Y-129417676D02*
X67742262Y-129322438D01*
X67742262Y-129322438D02*
X67885119Y-129274819D01*
X67885119Y-129274819D02*
X67980357Y-129274819D01*
X67980357Y-129274819D02*
X68123214Y-129322438D01*
X68123214Y-129322438D02*
X68170833Y-129370057D01*
X68504167Y-129274819D02*
X69123214Y-129274819D01*
X69123214Y-129274819D02*
X68789881Y-129655771D01*
X68789881Y-129655771D02*
X68932738Y-129655771D01*
X68932738Y-129655771D02*
X69027976Y-129703390D01*
X69027976Y-129703390D02*
X69075595Y-129751009D01*
X69075595Y-129751009D02*
X69123214Y-129846247D01*
X69123214Y-129846247D02*
X69123214Y-130084342D01*
X69123214Y-130084342D02*
X69075595Y-130179580D01*
X69075595Y-130179580D02*
X69027976Y-130227200D01*
X69027976Y-130227200D02*
X68932738Y-130274819D01*
X68932738Y-130274819D02*
X68647024Y-130274819D01*
X68647024Y-130274819D02*
X68551786Y-130227200D01*
X68551786Y-130227200D02*
X68504167Y-130179580D01*
X80075595Y-121304819D02*
X80075595Y-122114342D01*
X80075595Y-122114342D02*
X80123214Y-122209580D01*
X80123214Y-122209580D02*
X80170833Y-122257200D01*
X80170833Y-122257200D02*
X80266071Y-122304819D01*
X80266071Y-122304819D02*
X80456547Y-122304819D01*
X80456547Y-122304819D02*
X80551785Y-122257200D01*
X80551785Y-122257200D02*
X80599404Y-122209580D01*
X80599404Y-122209580D02*
X80647023Y-122114342D01*
X80647023Y-122114342D02*
X80647023Y-121304819D01*
X81551785Y-121638152D02*
X81551785Y-122304819D01*
X81313690Y-121257200D02*
X81075595Y-121971485D01*
X81075595Y-121971485D02*
X81694642Y-121971485D01*
X90377080Y-120892857D02*
X90424700Y-120940476D01*
X90424700Y-120940476D02*
X90472319Y-121083333D01*
X90472319Y-121083333D02*
X90472319Y-121178571D01*
X90472319Y-121178571D02*
X90424700Y-121321428D01*
X90424700Y-121321428D02*
X90329461Y-121416666D01*
X90329461Y-121416666D02*
X90234223Y-121464285D01*
X90234223Y-121464285D02*
X90043747Y-121511904D01*
X90043747Y-121511904D02*
X89900890Y-121511904D01*
X89900890Y-121511904D02*
X89710414Y-121464285D01*
X89710414Y-121464285D02*
X89615176Y-121416666D01*
X89615176Y-121416666D02*
X89519938Y-121321428D01*
X89519938Y-121321428D02*
X89472319Y-121178571D01*
X89472319Y-121178571D02*
X89472319Y-121083333D01*
X89472319Y-121083333D02*
X89519938Y-120940476D01*
X89519938Y-120940476D02*
X89567557Y-120892857D01*
X90472319Y-119940476D02*
X90472319Y-120511904D01*
X90472319Y-120226190D02*
X89472319Y-120226190D01*
X89472319Y-120226190D02*
X89615176Y-120321428D01*
X89615176Y-120321428D02*
X89710414Y-120416666D01*
X89710414Y-120416666D02*
X89758033Y-120511904D01*
X89472319Y-119321428D02*
X89472319Y-119226190D01*
X89472319Y-119226190D02*
X89519938Y-119130952D01*
X89519938Y-119130952D02*
X89567557Y-119083333D01*
X89567557Y-119083333D02*
X89662795Y-119035714D01*
X89662795Y-119035714D02*
X89853271Y-118988095D01*
X89853271Y-118988095D02*
X90091366Y-118988095D01*
X90091366Y-118988095D02*
X90281842Y-119035714D01*
X90281842Y-119035714D02*
X90377080Y-119083333D01*
X90377080Y-119083333D02*
X90424700Y-119130952D01*
X90424700Y-119130952D02*
X90472319Y-119226190D01*
X90472319Y-119226190D02*
X90472319Y-119321428D01*
X90472319Y-119321428D02*
X90424700Y-119416666D01*
X90424700Y-119416666D02*
X90377080Y-119464285D01*
X90377080Y-119464285D02*
X90281842Y-119511904D01*
X90281842Y-119511904D02*
X90091366Y-119559523D01*
X90091366Y-119559523D02*
X89853271Y-119559523D01*
X89853271Y-119559523D02*
X89662795Y-119511904D01*
X89662795Y-119511904D02*
X89567557Y-119464285D01*
X89567557Y-119464285D02*
X89519938Y-119416666D01*
X89519938Y-119416666D02*
X89472319Y-119321428D01*
X60947080Y-136166666D02*
X60994700Y-136214285D01*
X60994700Y-136214285D02*
X61042319Y-136357142D01*
X61042319Y-136357142D02*
X61042319Y-136452380D01*
X61042319Y-136452380D02*
X60994700Y-136595237D01*
X60994700Y-136595237D02*
X60899461Y-136690475D01*
X60899461Y-136690475D02*
X60804223Y-136738094D01*
X60804223Y-136738094D02*
X60613747Y-136785713D01*
X60613747Y-136785713D02*
X60470890Y-136785713D01*
X60470890Y-136785713D02*
X60280414Y-136738094D01*
X60280414Y-136738094D02*
X60185176Y-136690475D01*
X60185176Y-136690475D02*
X60089938Y-136595237D01*
X60089938Y-136595237D02*
X60042319Y-136452380D01*
X60042319Y-136452380D02*
X60042319Y-136357142D01*
X60042319Y-136357142D02*
X60089938Y-136214285D01*
X60089938Y-136214285D02*
X60137557Y-136166666D01*
X61042319Y-135214285D02*
X61042319Y-135785713D01*
X61042319Y-135499999D02*
X60042319Y-135499999D01*
X60042319Y-135499999D02*
X60185176Y-135595237D01*
X60185176Y-135595237D02*
X60280414Y-135690475D01*
X60280414Y-135690475D02*
X60328033Y-135785713D01*
X57145833Y-88109580D02*
X57098214Y-88157200D01*
X57098214Y-88157200D02*
X56955357Y-88204819D01*
X56955357Y-88204819D02*
X56860119Y-88204819D01*
X56860119Y-88204819D02*
X56717262Y-88157200D01*
X56717262Y-88157200D02*
X56622024Y-88061961D01*
X56622024Y-88061961D02*
X56574405Y-87966723D01*
X56574405Y-87966723D02*
X56526786Y-87776247D01*
X56526786Y-87776247D02*
X56526786Y-87633390D01*
X56526786Y-87633390D02*
X56574405Y-87442914D01*
X56574405Y-87442914D02*
X56622024Y-87347676D01*
X56622024Y-87347676D02*
X56717262Y-87252438D01*
X56717262Y-87252438D02*
X56860119Y-87204819D01*
X56860119Y-87204819D02*
X56955357Y-87204819D01*
X56955357Y-87204819D02*
X57098214Y-87252438D01*
X57098214Y-87252438D02*
X57145833Y-87300057D01*
X57622024Y-88204819D02*
X57812500Y-88204819D01*
X57812500Y-88204819D02*
X57907738Y-88157200D01*
X57907738Y-88157200D02*
X57955357Y-88109580D01*
X57955357Y-88109580D02*
X58050595Y-87966723D01*
X58050595Y-87966723D02*
X58098214Y-87776247D01*
X58098214Y-87776247D02*
X58098214Y-87395295D01*
X58098214Y-87395295D02*
X58050595Y-87300057D01*
X58050595Y-87300057D02*
X58002976Y-87252438D01*
X58002976Y-87252438D02*
X57907738Y-87204819D01*
X57907738Y-87204819D02*
X57717262Y-87204819D01*
X57717262Y-87204819D02*
X57622024Y-87252438D01*
X57622024Y-87252438D02*
X57574405Y-87300057D01*
X57574405Y-87300057D02*
X57526786Y-87395295D01*
X57526786Y-87395295D02*
X57526786Y-87633390D01*
X57526786Y-87633390D02*
X57574405Y-87728628D01*
X57574405Y-87728628D02*
X57622024Y-87776247D01*
X57622024Y-87776247D02*
X57717262Y-87823866D01*
X57717262Y-87823866D02*
X57907738Y-87823866D01*
X57907738Y-87823866D02*
X58002976Y-87776247D01*
X58002976Y-87776247D02*
X58050595Y-87728628D01*
X58050595Y-87728628D02*
X58098214Y-87633390D01*
X48238095Y-137154819D02*
X48238095Y-136154819D01*
X48238095Y-136631009D02*
X48809523Y-136631009D01*
X48809523Y-137154819D02*
X48809523Y-136154819D01*
X49190476Y-136154819D02*
X49809523Y-136154819D01*
X49809523Y-136154819D02*
X49476190Y-136535771D01*
X49476190Y-136535771D02*
X49619047Y-136535771D01*
X49619047Y-136535771D02*
X49714285Y-136583390D01*
X49714285Y-136583390D02*
X49761904Y-136631009D01*
X49761904Y-136631009D02*
X49809523Y-136726247D01*
X49809523Y-136726247D02*
X49809523Y-136964342D01*
X49809523Y-136964342D02*
X49761904Y-137059580D01*
X49761904Y-137059580D02*
X49714285Y-137107200D01*
X49714285Y-137107200D02*
X49619047Y-137154819D01*
X49619047Y-137154819D02*
X49333333Y-137154819D01*
X49333333Y-137154819D02*
X49238095Y-137107200D01*
X49238095Y-137107200D02*
X49190476Y-137059580D01*
X65420833Y-128109580D02*
X65373214Y-128157200D01*
X65373214Y-128157200D02*
X65230357Y-128204819D01*
X65230357Y-128204819D02*
X65135119Y-128204819D01*
X65135119Y-128204819D02*
X64992262Y-128157200D01*
X64992262Y-128157200D02*
X64897024Y-128061961D01*
X64897024Y-128061961D02*
X64849405Y-127966723D01*
X64849405Y-127966723D02*
X64801786Y-127776247D01*
X64801786Y-127776247D02*
X64801786Y-127633390D01*
X64801786Y-127633390D02*
X64849405Y-127442914D01*
X64849405Y-127442914D02*
X64897024Y-127347676D01*
X64897024Y-127347676D02*
X64992262Y-127252438D01*
X64992262Y-127252438D02*
X65135119Y-127204819D01*
X65135119Y-127204819D02*
X65230357Y-127204819D01*
X65230357Y-127204819D02*
X65373214Y-127252438D01*
X65373214Y-127252438D02*
X65420833Y-127300057D01*
X65801786Y-127300057D02*
X65849405Y-127252438D01*
X65849405Y-127252438D02*
X65944643Y-127204819D01*
X65944643Y-127204819D02*
X66182738Y-127204819D01*
X66182738Y-127204819D02*
X66277976Y-127252438D01*
X66277976Y-127252438D02*
X66325595Y-127300057D01*
X66325595Y-127300057D02*
X66373214Y-127395295D01*
X66373214Y-127395295D02*
X66373214Y-127490533D01*
X66373214Y-127490533D02*
X66325595Y-127633390D01*
X66325595Y-127633390D02*
X65754167Y-128204819D01*
X65754167Y-128204819D02*
X66373214Y-128204819D01*
X69092319Y-96583333D02*
X69806604Y-96583333D01*
X69806604Y-96583333D02*
X69949461Y-96630952D01*
X69949461Y-96630952D02*
X70044700Y-96726190D01*
X70044700Y-96726190D02*
X70092319Y-96869047D01*
X70092319Y-96869047D02*
X70092319Y-96964285D01*
X70092319Y-95583333D02*
X70092319Y-96154761D01*
X70092319Y-95869047D02*
X69092319Y-95869047D01*
X69092319Y-95869047D02*
X69235176Y-95964285D01*
X69235176Y-95964285D02*
X69330414Y-96059523D01*
X69330414Y-96059523D02*
X69378033Y-96154761D01*
X95042319Y-126166666D02*
X94566128Y-126499999D01*
X95042319Y-126738094D02*
X94042319Y-126738094D01*
X94042319Y-126738094D02*
X94042319Y-126357142D01*
X94042319Y-126357142D02*
X94089938Y-126261904D01*
X94089938Y-126261904D02*
X94137557Y-126214285D01*
X94137557Y-126214285D02*
X94232795Y-126166666D01*
X94232795Y-126166666D02*
X94375652Y-126166666D01*
X94375652Y-126166666D02*
X94470890Y-126214285D01*
X94470890Y-126214285D02*
X94518509Y-126261904D01*
X94518509Y-126261904D02*
X94566128Y-126357142D01*
X94566128Y-126357142D02*
X94566128Y-126738094D01*
X94042319Y-125833332D02*
X94042319Y-125166666D01*
X94042319Y-125166666D02*
X95042319Y-125595237D01*
X53754166Y-99584819D02*
X53754166Y-100299104D01*
X53754166Y-100299104D02*
X53706547Y-100441961D01*
X53706547Y-100441961D02*
X53611309Y-100537200D01*
X53611309Y-100537200D02*
X53468452Y-100584819D01*
X53468452Y-100584819D02*
X53373214Y-100584819D01*
X54658928Y-99918152D02*
X54658928Y-100584819D01*
X54420833Y-99537200D02*
X54182738Y-100251485D01*
X54182738Y-100251485D02*
X54801785Y-100251485D01*
X106004166Y-105074819D02*
X106004166Y-105789104D01*
X106004166Y-105789104D02*
X105956547Y-105931961D01*
X105956547Y-105931961D02*
X105861309Y-106027200D01*
X105861309Y-106027200D02*
X105718452Y-106074819D01*
X105718452Y-106074819D02*
X105623214Y-106074819D01*
X106432738Y-105170057D02*
X106480357Y-105122438D01*
X106480357Y-105122438D02*
X106575595Y-105074819D01*
X106575595Y-105074819D02*
X106813690Y-105074819D01*
X106813690Y-105074819D02*
X106908928Y-105122438D01*
X106908928Y-105122438D02*
X106956547Y-105170057D01*
X106956547Y-105170057D02*
X107004166Y-105265295D01*
X107004166Y-105265295D02*
X107004166Y-105360533D01*
X107004166Y-105360533D02*
X106956547Y-105503390D01*
X106956547Y-105503390D02*
X106385119Y-106074819D01*
X106385119Y-106074819D02*
X107004166Y-106074819D01*
X60292319Y-107761904D02*
X61101842Y-107761904D01*
X61101842Y-107761904D02*
X61197080Y-107714285D01*
X61197080Y-107714285D02*
X61244700Y-107666666D01*
X61244700Y-107666666D02*
X61292319Y-107571428D01*
X61292319Y-107571428D02*
X61292319Y-107380952D01*
X61292319Y-107380952D02*
X61244700Y-107285714D01*
X61244700Y-107285714D02*
X61197080Y-107238095D01*
X61197080Y-107238095D02*
X61101842Y-107190476D01*
X61101842Y-107190476D02*
X60292319Y-107190476D01*
X61292319Y-106190476D02*
X61292319Y-106761904D01*
X61292319Y-106476190D02*
X60292319Y-106476190D01*
X60292319Y-106476190D02*
X60435176Y-106571428D01*
X60435176Y-106571428D02*
X60530414Y-106666666D01*
X60530414Y-106666666D02*
X60578033Y-106761904D01*
X112238095Y-137404819D02*
X112238095Y-136404819D01*
X112238095Y-136881009D02*
X112809523Y-136881009D01*
X112809523Y-137404819D02*
X112809523Y-136404819D01*
X113714285Y-136738152D02*
X113714285Y-137404819D01*
X113476190Y-136357200D02*
X113238095Y-137071485D01*
X113238095Y-137071485D02*
X113857142Y-137071485D01*
X97142319Y-113666666D02*
X96666128Y-113999999D01*
X97142319Y-114238094D02*
X96142319Y-114238094D01*
X96142319Y-114238094D02*
X96142319Y-113857142D01*
X96142319Y-113857142D02*
X96189938Y-113761904D01*
X96189938Y-113761904D02*
X96237557Y-113714285D01*
X96237557Y-113714285D02*
X96332795Y-113666666D01*
X96332795Y-113666666D02*
X96475652Y-113666666D01*
X96475652Y-113666666D02*
X96570890Y-113714285D01*
X96570890Y-113714285D02*
X96618509Y-113761904D01*
X96618509Y-113761904D02*
X96666128Y-113857142D01*
X96666128Y-113857142D02*
X96666128Y-114238094D01*
X96142319Y-112761904D02*
X96142319Y-113238094D01*
X96142319Y-113238094D02*
X96618509Y-113285713D01*
X96618509Y-113285713D02*
X96570890Y-113238094D01*
X96570890Y-113238094D02*
X96523271Y-113142856D01*
X96523271Y-113142856D02*
X96523271Y-112904761D01*
X96523271Y-112904761D02*
X96570890Y-112809523D01*
X96570890Y-112809523D02*
X96618509Y-112761904D01*
X96618509Y-112761904D02*
X96713747Y-112714285D01*
X96713747Y-112714285D02*
X96951842Y-112714285D01*
X96951842Y-112714285D02*
X97047080Y-112761904D01*
X97047080Y-112761904D02*
X97094700Y-112809523D01*
X97094700Y-112809523D02*
X97142319Y-112904761D01*
X97142319Y-112904761D02*
X97142319Y-113142856D01*
X97142319Y-113142856D02*
X97094700Y-113238094D01*
X97094700Y-113238094D02*
X97047080Y-113285713D01*
%TO.C,C5*%
D11*
X73848752Y-131015000D02*
X73326248Y-131015000D01*
X73848752Y-132485000D02*
X73326248Y-132485000D01*
%TO.C,R4*%
X88064564Y-114765000D02*
X87610436Y-114765000D01*
X88064564Y-116235000D02*
X87610436Y-116235000D01*
%TO.C,C6*%
X73848752Y-135515000D02*
X73326248Y-135515000D01*
X73848752Y-136985000D02*
X73326248Y-136985000D01*
%TO.C,D1*%
X58597500Y-114850000D02*
X53087500Y-114850000D01*
X58597500Y-118150000D02*
X53087500Y-118150000D01*
X58597500Y-118150000D02*
X58597500Y-114850000D01*
%TO.C,R1*%
X58814564Y-98015000D02*
X58360436Y-98015000D01*
X58814564Y-99485000D02*
X58360436Y-99485000D01*
%TO.C,D2*%
X57127500Y-102815000D02*
X57127500Y-105500000D01*
X59047500Y-102815000D02*
X57127500Y-102815000D01*
X59047500Y-105500000D02*
X59047500Y-102815000D01*
%TO.C,R8*%
X87602500Y-125772936D02*
X87602500Y-126227064D01*
X89072500Y-125772936D02*
X89072500Y-126227064D01*
%TO.C,LDR1*%
X106037500Y-118850000D02*
X100037500Y-118850000D01*
X106037500Y-127650000D02*
X100037500Y-127650000D01*
X100037500Y-127650000D02*
G75*
G02*
X100004850Y-118872440I3000000J4400000D01*
G01*
X106037500Y-118850000D02*
G75*
G02*
X106070150Y-127627560I-3000000J-4400000D01*
G01*
%TO.C,J3*%
X51957500Y-102370000D02*
X53337500Y-102370000D01*
X51957500Y-103750000D02*
X51957500Y-102370000D01*
X51957500Y-105020000D02*
X51957500Y-112750000D01*
X51957500Y-105020000D02*
X54717500Y-105020000D01*
X51957500Y-112750000D02*
X54717500Y-112750000D01*
X54717500Y-105020000D02*
X54717500Y-112750000D01*
%TO.C,R6*%
X58610436Y-109015000D02*
X59064564Y-109015000D01*
X58610436Y-110485000D02*
X59064564Y-110485000D01*
%TO.C,J5*%
X89457500Y-137130000D02*
X89457500Y-135750000D01*
X90837500Y-137130000D02*
X89457500Y-137130000D01*
X92107500Y-134370000D02*
X97297500Y-134370000D01*
X92107500Y-137130000D02*
X92107500Y-134370000D01*
X92107500Y-137130000D02*
X97297500Y-137130000D01*
X97297500Y-137130000D02*
X97297500Y-134370000D01*
%TO.C,C7*%
X58598752Y-93515000D02*
X58076248Y-93515000D01*
X58598752Y-94985000D02*
X58076248Y-94985000D01*
%TO.C,R3*%
X80860436Y-114765000D02*
X81314564Y-114765000D01*
X80860436Y-116235000D02*
X81314564Y-116235000D01*
%TO.C,R2*%
X95602500Y-131227064D02*
X95602500Y-130772936D01*
X97072500Y-131227064D02*
X97072500Y-130772936D01*
%TO.C,U3*%
X77387500Y-84600000D02*
X77387500Y-90800000D01*
X77387500Y-84600000D02*
X95787500Y-84600000D01*
X77387500Y-109450000D02*
X77387500Y-110450000D01*
X77387500Y-110450000D02*
X78887500Y-110450000D01*
X95787500Y-84600000D02*
X95787500Y-90800000D01*
X95787500Y-110450000D02*
X94287500Y-110450000D01*
X95787500Y-110450000D02*
X95787500Y-109450000D01*
X77387500Y-91475000D02*
X76887500Y-91475000D01*
X77387500Y-90975000D01*
X77387500Y-91475000D01*
G36*
X77387500Y-91475000D02*
G01*
X76887500Y-91475000D01*
X77387500Y-90975000D01*
X77387500Y-91475000D01*
G37*
%TO.C,C4*%
X68076248Y-135515000D02*
X68598752Y-135515000D01*
X68076248Y-136985000D02*
X68598752Y-136985000D01*
%TO.C,J6*%
X57627500Y-136795000D02*
X57627500Y-133705000D01*
X52077500Y-135250000D02*
G75*
G02*
X57627500Y-133705170I2990000J0D01*
G01*
X57627500Y-136794830D02*
G75*
G02*
X52077500Y-135250000I-2560000J1544830D01*
G01*
X57567500Y-135250000D02*
G75*
G02*
X52567500Y-135250000I-2500000J0D01*
G01*
X52567500Y-135250000D02*
G75*
G02*
X57567500Y-135250000I2500000J0D01*
G01*
%TO.C,SW1*%
X100337500Y-133000000D02*
X100337500Y-134500000D01*
X101587500Y-137000000D02*
X106087500Y-137000000D01*
X106087500Y-130500000D02*
X101587500Y-130500000D01*
X107337500Y-134500000D02*
X107337500Y-133000000D01*
%TO.C,U2*%
X81237500Y-130590000D02*
X84997500Y-130590000D01*
X81237500Y-137410000D02*
X84997500Y-137410000D01*
X84997500Y-130590000D02*
X84997500Y-131850000D01*
X84997500Y-137410000D02*
X84997500Y-136150000D01*
X79957500Y-130690000D02*
X79717500Y-130360000D01*
X80197500Y-130360000D01*
X79957500Y-130690000D01*
G36*
X79957500Y-130690000D02*
G01*
X79717500Y-130360000D01*
X80197500Y-130360000D01*
X79957500Y-130690000D01*
G37*
%TO.C,L1*%
X52037500Y-119950000D02*
X55237500Y-119950000D01*
X52037500Y-130550000D02*
X52037500Y-119950000D01*
X55237500Y-130550000D02*
X52037500Y-130550000D01*
X59437500Y-119950000D02*
X62637500Y-119950000D01*
X62637500Y-119950000D02*
X62637500Y-130550000D01*
X62637500Y-130550000D02*
X59437500Y-130550000D01*
%TO.C,SW2*%
X51587500Y-77750000D02*
X51587500Y-82250000D01*
X54087500Y-83500000D02*
X55587500Y-83500000D01*
X55587500Y-76500000D02*
X54087500Y-76500000D01*
X58087500Y-82250000D02*
X58087500Y-77750000D01*
%TO.C,C8*%
X60348752Y-89265000D02*
X59826248Y-89265000D01*
X60348752Y-90735000D02*
X59826248Y-90735000D01*
%TO.C,C3*%
X68076248Y-130765000D02*
X68598752Y-130765000D01*
X68076248Y-132235000D02*
X68598752Y-132235000D01*
%TO.C,U4*%
X78777500Y-122690000D02*
X82897500Y-122690000D01*
X78777500Y-122785000D02*
X78777500Y-122690000D01*
X78777500Y-127810000D02*
X78777500Y-127715000D01*
X82897500Y-122690000D02*
X82897500Y-122785000D01*
X82897500Y-127715000D02*
X82897500Y-127810000D01*
X82897500Y-127810000D02*
X78777500Y-127810000D01*
X78237500Y-122780000D02*
X77997500Y-122450000D01*
X78477500Y-122450000D01*
X78237500Y-122780000D01*
G36*
X78237500Y-122780000D02*
G01*
X77997500Y-122450000D01*
X78477500Y-122450000D01*
X78237500Y-122780000D01*
G37*
%TO.C,C10*%
X87602500Y-119988748D02*
X87602500Y-120511252D01*
X89072500Y-119988748D02*
X89072500Y-120511252D01*
%TO.C,C1*%
X61852500Y-136511252D02*
X61852500Y-135988748D01*
X63322500Y-136511252D02*
X63322500Y-135988748D01*
%TO.C,C9*%
X54548752Y-86840000D02*
X53126248Y-86840000D01*
X54548752Y-88660000D02*
X53126248Y-88660000D01*
%TO.C,C2*%
X73907500Y-124750000D02*
G75*
G02*
X65667500Y-124750000I-4120000J0D01*
G01*
X65667500Y-124750000D02*
G75*
G02*
X73907500Y-124750000I4120000J0D01*
G01*
%TO.C,J1*%
X63737500Y-92440000D02*
X63997500Y-92440000D01*
X63997500Y-100060000D02*
X63737500Y-100060000D01*
X66277500Y-92440000D02*
X68047500Y-92440000D01*
X68047500Y-92440000D02*
X68047500Y-92820000D01*
X68047500Y-100060000D02*
X66277500Y-100060000D01*
X68047500Y-100060000D02*
X68047500Y-99680000D01*
%TO.C,R7*%
X92102500Y-126227064D02*
X92102500Y-125772936D01*
X93572500Y-126227064D02*
X93572500Y-125772936D01*
%TO.C,J4*%
X51957500Y-96480000D02*
X51957500Y-91290000D01*
X54717500Y-91290000D02*
X51957500Y-91290000D01*
X54717500Y-96480000D02*
X51957500Y-96480000D01*
X54717500Y-96480000D02*
X54717500Y-91290000D01*
X54717500Y-97750000D02*
X54717500Y-99130000D01*
X54717500Y-99130000D02*
X53337500Y-99130000D01*
%TO.C,J2*%
X104957500Y-106620000D02*
X106337500Y-106620000D01*
X104957500Y-108000000D02*
X104957500Y-106620000D01*
X104957500Y-109270000D02*
X104957500Y-117000000D01*
X104957500Y-109270000D02*
X107717500Y-109270000D01*
X104957500Y-117000000D02*
X107717500Y-117000000D01*
X107717500Y-109270000D02*
X107717500Y-117000000D01*
%TO.C,U1*%
X61912500Y-112285000D02*
X61912500Y-113650000D01*
X61912500Y-113650000D02*
X62862500Y-113650000D01*
X72312500Y-112285000D02*
X72312500Y-113650000D01*
X72312500Y-113650000D02*
X71362500Y-113650000D01*
X62902500Y-116475000D02*
X62432500Y-116815000D01*
X62432500Y-116135000D01*
X62902500Y-116475000D01*
G36*
X62902500Y-116475000D02*
G01*
X62432500Y-116815000D01*
X62432500Y-116135000D01*
X62902500Y-116475000D01*
G37*
%TO.C,R5*%
X97602500Y-113727064D02*
X97602500Y-113272936D01*
X99072500Y-113727064D02*
X99072500Y-113272936D01*
%TD*%
M02*
