%TF.GenerationSoftware,KiCad,Pcbnew,10.0.6*%
%TF.CreationDate,2026-09-30T09:41:37+05:30*%
%TF.ProjectId,PCB,5043422e-6b69-4636-9164-5f7063625858,rev?*%
%TF.SameCoordinates,Original*%
%TF.FileFunction,Copper,L1,Top*%
%TF.FilePolarity,Positive*%
%FSLAX46Y46*%
G04 Gerber Fmt 4.6, Leading zero omitted, Abs format (unit mm)*
G04 Created by KiCad (PCBNEW 10.0.6) date 2026-09-30 09:41:37*
%MOMM*%
%LPD*%
G01*
G04 APERTURE LIST*
G04 Aperture macros list*
%AMRoundRect*
0 Rectangle with rounded corners*
0 $1 Rounding radius*
0 $2 $3 $4 $5 $6 $7 $8 $9 X,Y pos of 4 corners*
0 Add a 4 corners polygon primitive as box body*
4,1,4,$2,$3,$4,$5,$6,$7,$8,$9,$2,$3,0*
0 Add four circle primitives for the rounded corners*
1,1,$1+$1,$2,$3*
1,1,$1+$1,$4,$5*
1,1,$1+$1,$6,$7*
1,1,$1+$1,$8,$9*
0 Add four rect primitives between the rounded corners*
20,1,$1+$1,$2,$3,$4,$5,0*
20,1,$1+$1,$4,$5,$6,$7,0*
20,1,$1+$1,$6,$7,$8,$9,0*
20,1,$1+$1,$8,$9,$2,$3,0*%
G04 Aperture macros list end*
%TA.AperFunction,SMDPad,CuDef*%
%ADD10RoundRect,0.250000X0.250000X0.475000X-0.250000X0.475000X-0.250000X-0.475000X0.250000X-0.475000X0*%
%TD*%
%TA.AperFunction,SMDPad,CuDef*%
%ADD11RoundRect,0.250000X0.262500X0.450000X-0.262500X0.450000X-0.262500X-0.450000X0.262500X-0.450000X0*%
%TD*%
%TA.AperFunction,SMDPad,CuDef*%
%ADD12RoundRect,0.250000X1.000000X0.650000X-1.000000X0.650000X-1.000000X-0.650000X1.000000X-0.650000X0*%
%TD*%
%TA.AperFunction,SMDPad,CuDef*%
%ADD13RoundRect,0.243750X-0.456250X0.243750X-0.456250X-0.243750X0.456250X-0.243750X0.456250X0.243750X0*%
%TD*%
%TA.AperFunction,SMDPad,CuDef*%
%ADD14RoundRect,0.250000X-0.450000X0.262500X-0.450000X-0.262500X0.450000X-0.262500X0.450000X0.262500X0*%
%TD*%
%TA.AperFunction,ComponentPad*%
%ADD15C,1.600000*%
%TD*%
%TA.AperFunction,ComponentPad*%
%ADD16R,1.700000X1.700000*%
%TD*%
%TA.AperFunction,ComponentPad*%
%ADD17C,1.700000*%
%TD*%
%TA.AperFunction,SMDPad,CuDef*%
%ADD18RoundRect,0.250000X-0.262500X-0.450000X0.262500X-0.450000X0.262500X0.450000X-0.262500X0.450000X0*%
%TD*%
%TA.AperFunction,SMDPad,CuDef*%
%ADD19RoundRect,0.250000X0.450000X-0.262500X0.450000X0.262500X-0.450000X0.262500X-0.450000X-0.262500X0*%
%TD*%
%TA.AperFunction,SMDPad,CuDef*%
%ADD20R,1.500000X0.900000*%
%TD*%
%TA.AperFunction,SMDPad,CuDef*%
%ADD21R,0.900000X1.500000*%
%TD*%
%TA.AperFunction,HeatsinkPad*%
%ADD22C,0.600000*%
%TD*%
%TA.AperFunction,HeatsinkPad*%
%ADD23R,3.900000X3.900000*%
%TD*%
%TA.AperFunction,SMDPad,CuDef*%
%ADD24RoundRect,0.250000X-0.250000X-0.475000X0.250000X-0.475000X0.250000X0.475000X-0.250000X0.475000X0*%
%TD*%
%TA.AperFunction,ComponentPad*%
%ADD25R,1.800000X1.800000*%
%TD*%
%TA.AperFunction,ComponentPad*%
%ADD26C,1.800000*%
%TD*%
%TA.AperFunction,ComponentPad*%
%ADD27C,2.000000*%
%TD*%
%TA.AperFunction,SMDPad,CuDef*%
%ADD28RoundRect,0.375000X-0.625000X-0.375000X0.625000X-0.375000X0.625000X0.375000X-0.625000X0.375000X0*%
%TD*%
%TA.AperFunction,SMDPad,CuDef*%
%ADD29RoundRect,0.500000X-0.500000X-1.400000X0.500000X-1.400000X0.500000X1.400000X-0.500000X1.400000X0*%
%TD*%
%TA.AperFunction,SMDPad,CuDef*%
%ADD30R,3.600000X2.700000*%
%TD*%
%TA.AperFunction,SMDPad,CuDef*%
%ADD31RoundRect,0.150000X-0.825000X-0.150000X0.825000X-0.150000X0.825000X0.150000X-0.825000X0.150000X0*%
%TD*%
%TA.AperFunction,SMDPad,CuDef*%
%ADD32RoundRect,0.250000X-0.475000X0.250000X-0.475000X-0.250000X0.475000X-0.250000X0.475000X0.250000X0*%
%TD*%
%TA.AperFunction,SMDPad,CuDef*%
%ADD33RoundRect,0.250000X0.475000X-0.250000X0.475000X0.250000X-0.475000X0.250000X-0.475000X-0.250000X0*%
%TD*%
%TA.AperFunction,SMDPad,CuDef*%
%ADD34RoundRect,0.250000X0.325000X0.650000X-0.325000X0.650000X-0.325000X-0.650000X0.325000X-0.650000X0*%
%TD*%
%TA.AperFunction,SMDPad,CuDef*%
%ADD35RoundRect,0.112500X-0.577500X0.112500X-0.577500X-0.112500X0.577500X-0.112500X0.577500X0.112500X0*%
%TD*%
%TA.AperFunction,SMDPad,CuDef*%
%ADD36RoundRect,0.250000X-0.400000X0.575000X-0.400000X-0.575000X0.400000X-0.575000X0.400000X0.575000X0*%
%TD*%
%TA.AperFunction,SMDPad,CuDef*%
%ADD37RoundRect,0.250000X-0.525000X0.462500X-0.525000X-0.462500X0.525000X-0.462500X0.525000X0.462500X0*%
%TD*%
%TA.AperFunction,SMDPad,CuDef*%
%ADD38RoundRect,0.250000X-0.700000X0.650000X-0.700000X-0.650000X0.700000X-0.650000X0.700000X0.650000X0*%
%TD*%
%TA.AperFunction,SMDPad,CuDef*%
%ADD39RoundRect,0.250000X-0.700000X0.250000X-0.700000X-0.250000X0.700000X-0.250000X0.700000X0.250000X0*%
%TD*%
%TA.AperFunction,SMDPad,CuDef*%
%ADD40RoundRect,0.250000X0.300000X-2.050000X0.300000X2.050000X-0.300000X2.050000X-0.300000X-2.050000X0*%
%TD*%
%TA.AperFunction,SMDPad,CuDef*%
%ADD41RoundRect,0.250002X5.149998X-4.449998X5.149998X4.449998X-5.149998X4.449998X-5.149998X-4.449998X0*%
%TD*%
%TA.AperFunction,ViaPad*%
%ADD42C,0.600000*%
%TD*%
%TA.AperFunction,Conductor*%
%ADD43C,0.200000*%
%TD*%
G04 APERTURE END LIST*
D10*
%TO.P,C5,1*%
%TO.N,/3.3V*%
X74537500Y-131750000D03*
%TO.P,C5,2*%
%TO.N,GND*%
X72637500Y-131750000D03*
%TD*%
D11*
%TO.P,R4,1*%
%TO.N,/SCL*%
X88750000Y-115500000D03*
%TO.P,R4,2*%
%TO.N,/3.3V*%
X86925000Y-115500000D03*
%TD*%
D10*
%TO.P,C6,1*%
%TO.N,/3.3V*%
X74537500Y-136250000D03*
%TO.P,C6,2*%
%TO.N,GND*%
X72637500Y-136250000D03*
%TD*%
D12*
%TO.P,D1,1,K_1*%
%TO.N,Net-(D1-K)*%
X57087500Y-116500000D03*
%TO.P,D1,2,A_2*%
%TO.N,GND*%
X53087500Y-116500000D03*
%TD*%
D11*
%TO.P,R1,1*%
%TO.N,Net-(U3-EN)*%
X59500000Y-98750000D03*
%TO.P,R1,2*%
%TO.N,/3.3V*%
X57675000Y-98750000D03*
%TD*%
D13*
%TO.P,D2,1,K_1*%
%TO.N,GND*%
X58087500Y-103562500D03*
%TO.P,D2,2,A_2*%
%TO.N,Net-(D2-A)*%
X58087500Y-105437500D03*
%TD*%
D14*
%TO.P,R8,1*%
%TO.N,/RS485*%
X88337500Y-125087500D03*
%TO.P,R8,2*%
%TO.N,Net-(J5-Pin_1)*%
X88337500Y-126912500D03*
%TD*%
D15*
%TO.P,LDR1,1*%
%TO.N,Net-(U3-IO1)*%
X106837500Y-123250000D03*
%TO.P,LDR1,2*%
%TO.N,/3.3V*%
X99237500Y-123250000D03*
%TD*%
D16*
%TO.P,J3,1,Pin_1_1*%
%TO.N,/3.3V*%
X53337500Y-103750000D03*
D17*
%TO.P,J3,2,Pin_2_2*%
%TO.N,GND*%
X53337500Y-106290000D03*
%TO.P,J3,3,Pin_3_3*%
%TO.N,/SDA*%
X53337500Y-108830000D03*
%TO.P,J3,4,Pin_4_4*%
%TO.N,/SCL*%
X53337500Y-111370000D03*
%TD*%
D18*
%TO.P,R6,1*%
%TO.N,Net-(D2-A)*%
X57925000Y-109750000D03*
%TO.P,R6,2*%
%TO.N,Net-(U3-IO6)*%
X59750000Y-109750000D03*
%TD*%
D16*
%TO.P,J5,1,Pin_1_1*%
%TO.N,Net-(J5-Pin_1)*%
X90837500Y-135750000D03*
D17*
%TO.P,J5,2,Pin_2_2*%
%TO.N,/RS485*%
X93377500Y-135750000D03*
%TO.P,J5,3,Pin_3_3*%
%TO.N,GND*%
X95917500Y-135750000D03*
%TD*%
D10*
%TO.P,C7,1*%
%TO.N,Net-(U3-EN)*%
X59287500Y-94250000D03*
%TO.P,C7,2*%
%TO.N,GND*%
X57387500Y-94250000D03*
%TD*%
D18*
%TO.P,R3,1*%
%TO.N,/SDA*%
X80175000Y-115500000D03*
%TO.P,R3,2*%
%TO.N,/3.3V*%
X82000000Y-115500000D03*
%TD*%
D19*
%TO.P,R2,1*%
%TO.N,Net-(U3-IO0)*%
X96337500Y-131912500D03*
%TO.P,R2,2*%
%TO.N,/3.3V*%
X96337500Y-130087500D03*
%TD*%
D20*
%TO.P,U3,1,GND_1*%
%TO.N,GND*%
X77837500Y-92240000D03*
%TO.P,U3,2,3V3_2*%
%TO.N,/3.3V*%
X77837500Y-93510000D03*
%TO.P,U3,3,EN_3*%
%TO.N,Net-(U3-EN)*%
X77837500Y-94780000D03*
%TO.P,U3,4,IO4_4*%
%TO.N,/DATA*%
X77837500Y-96050000D03*
%TO.P,U3,5,IO5_5*%
%TO.N,unconnected-(U3-IO5-Pad5)*%
X77837500Y-97320000D03*
%TO.P,U3,6,IO6_6*%
%TO.N,Net-(U3-IO6)*%
X77837500Y-98590000D03*
%TO.P,U3,7,IO7_7*%
%TO.N,unconnected-(U3-IO7-Pad7)*%
X77837500Y-99860000D03*
%TO.P,U3,8,IO15_8*%
%TO.N,unconnected-(U3-IO15-Pad8)*%
X77837500Y-101130000D03*
%TO.P,U3,9,IO16_9*%
%TO.N,unconnected-(U3-IO16-Pad9)*%
X77837500Y-102400000D03*
%TO.P,U3,10,IO17_10*%
%TO.N,Net-(U3-IO17)*%
X77837500Y-103670000D03*
%TO.P,U3,11,IO18_11*%
%TO.N,Net-(U3-IO18)*%
X77837500Y-104940000D03*
%TO.P,U3,12,IO8_12*%
%TO.N,/SDA*%
X77837500Y-106210000D03*
%TO.P,U3,13,USB_D-_13*%
%TO.N,Net-(J1-D-)*%
X77837500Y-107480000D03*
%TO.P,U3,14,USB_D+_14*%
%TO.N,Net-(J1-D+)*%
X77837500Y-108750000D03*
D21*
%TO.P,U3,15,IO3_15*%
%TO.N,unconnected-(U3-IO3-Pad15)*%
X79602500Y-110000000D03*
%TO.P,U3,16,IO46_16*%
%TO.N,unconnected-(U3-IO46-Pad16)*%
X80872500Y-110000000D03*
%TO.P,U3,17,IO9_17*%
%TO.N,/SCL*%
X82142500Y-110000000D03*
%TO.P,U3,18,IO10_18*%
%TO.N,unconnected-(U3-IO10-Pad18)*%
X83412500Y-110000000D03*
%TO.P,U3,19,IO11_19*%
%TO.N,unconnected-(U3-IO11-Pad19)*%
X84682500Y-110000000D03*
%TO.P,U3,20,IO12_20*%
%TO.N,unconnected-(U3-IO12-Pad20)*%
X85952500Y-110000000D03*
%TO.P,U3,21,IO13_21*%
%TO.N,unconnected-(U3-IO13-Pad21)*%
X87222500Y-110000000D03*
%TO.P,U3,22,IO14_22*%
%TO.N,unconnected-(U3-IO14-Pad22)*%
X88492500Y-110000000D03*
%TO.P,U3,23,IO21_23*%
%TO.N,Net-(U3-IO21)*%
X89762500Y-110000000D03*
%TO.P,U3,24,IO47_24*%
%TO.N,unconnected-(U3-IO47-Pad24)*%
X91032500Y-110000000D03*
%TO.P,U3,25,IO48_25*%
%TO.N,unconnected-(U3-IO48-Pad25)*%
X92302500Y-110000000D03*
%TO.P,U3,26,IO45_26*%
%TO.N,unconnected-(U3-IO45-Pad26)*%
X93572500Y-110000000D03*
D20*
%TO.P,U3,27,IO0_27*%
%TO.N,Net-(U3-IO0)*%
X95337500Y-108750000D03*
%TO.P,U3,28,IO35_28*%
%TO.N,unconnected-(U3-IO35-Pad28)*%
X95337500Y-107480000D03*
%TO.P,U3,29,IO36_29*%
%TO.N,unconnected-(U3-IO36-Pad29)*%
X95337500Y-106210000D03*
%TO.P,U3,30,IO37_30*%
%TO.N,unconnected-(U3-IO37-Pad30)*%
X95337500Y-104940000D03*
%TO.P,U3,31,IO38_31*%
%TO.N,unconnected-(U3-IO38-Pad31)*%
X95337500Y-103670000D03*
%TO.P,U3,32,IO39_32*%
%TO.N,unconnected-(U3-IO39-Pad32)*%
X95337500Y-102400000D03*
%TO.P,U3,33,IO40_33*%
%TO.N,unconnected-(U3-IO40-Pad33)*%
X95337500Y-101130000D03*
%TO.P,U3,34,IO41_34*%
%TO.N,unconnected-(U3-IO41-Pad34)*%
X95337500Y-99860000D03*
%TO.P,U3,35,IO42_35*%
%TO.N,unconnected-(U3-IO42-Pad35)*%
X95337500Y-98590000D03*
%TO.P,U3,36,RXD0_36*%
%TO.N,/UART Debug*%
X95337500Y-97320000D03*
%TO.P,U3,37,TXD0_37*%
%TO.N,Net-(J2-Pin_3)*%
X95337500Y-96050000D03*
%TO.P,U3,38,IO2_38*%
%TO.N,unconnected-(U3-IO2-Pad38)*%
X95337500Y-94780000D03*
%TO.P,U3,39,IO1_39*%
%TO.N,Net-(U3-IO1)*%
X95337500Y-93510000D03*
%TO.P,U3,40,GND_40*%
%TO.N,GND*%
X95337500Y-92240000D03*
D22*
%TO.P,U3,41,GND_41*%
X83687500Y-99260000D03*
X83687500Y-100660000D03*
X84387500Y-98560000D03*
X84387500Y-99960000D03*
X84387500Y-101360000D03*
X85087500Y-99260000D03*
D23*
X85087500Y-99960000D03*
D22*
X85087500Y-100660000D03*
X85787500Y-98560000D03*
X85787500Y-99960000D03*
X85787500Y-101360000D03*
X86487500Y-99260000D03*
X86487500Y-100660000D03*
%TD*%
D24*
%TO.P,C4,1*%
%TO.N,/5.0V*%
X67387500Y-136250000D03*
%TO.P,C4,2*%
%TO.N,GND*%
X69287500Y-136250000D03*
%TD*%
D25*
%TO.P,J6,1,Pin_1_1*%
%TO.N,Net-(J6-Pin_1)*%
X56337500Y-135250000D03*
D26*
%TO.P,J6,2,Pin_2_2*%
%TO.N,GND*%
X53797500Y-135250000D03*
%TD*%
D27*
%TO.P,SW1,1,1_1*%
%TO.N,GND*%
X107087500Y-136000000D03*
X100587500Y-136000000D03*
%TO.P,SW1,2,2_2*%
%TO.N,Net-(U3-IO0)*%
X107087500Y-131500000D03*
X100587500Y-131500000D03*
%TD*%
D28*
%TO.P,U2,1,GND_1*%
%TO.N,GND*%
X79937500Y-131700000D03*
%TO.P,U2,2,VO_2*%
%TO.N,/3.3V*%
X79937500Y-134000000D03*
D29*
X86237500Y-134000000D03*
D28*
%TO.P,U2,3,VI_3*%
%TO.N,/5.0V*%
X79937500Y-136300000D03*
%TD*%
D30*
%TO.P,L1,1,1_1*%
%TO.N,Net-(D1-K)*%
X57337500Y-121100000D03*
%TO.P,L1,2,2_2*%
%TO.N,/5.0V*%
X57337500Y-129400000D03*
%TD*%
D27*
%TO.P,SW2,1,1_1*%
%TO.N,GND*%
X52587500Y-83250000D03*
X52587500Y-76750000D03*
%TO.P,SW2,2,2_2*%
%TO.N,Net-(U3-EN)*%
X57087500Y-83250000D03*
X57087500Y-76750000D03*
%TD*%
D10*
%TO.P,C8,1*%
%TO.N,/3.3V*%
X61037500Y-90000000D03*
%TO.P,C8,2*%
%TO.N,GND*%
X59137500Y-90000000D03*
%TD*%
D24*
%TO.P,C3,1*%
%TO.N,/5.0V*%
X67387500Y-131500000D03*
%TO.P,C3,2*%
%TO.N,GND*%
X69287500Y-131500000D03*
%TD*%
D31*
%TO.P,U4,1,RO_1*%
%TO.N,Net-(U3-IO18)*%
X78362500Y-123345000D03*
%TO.P,U4,2,~{RE}_2*%
%TO.N,Net-(U3-IO21)*%
X78362500Y-124615000D03*
%TO.P,U4,3,DE_3*%
X78362500Y-125885000D03*
%TO.P,U4,4,DI_4*%
%TO.N,Net-(U3-IO17)*%
X78362500Y-127155000D03*
%TO.P,U4,5,GND_5*%
%TO.N,GND*%
X83312500Y-127155000D03*
%TO.P,U4,6,A_6*%
%TO.N,Net-(J5-Pin_1)*%
X83312500Y-125885000D03*
%TO.P,U4,7,B_7*%
%TO.N,/RS485*%
X83312500Y-124615000D03*
%TO.P,U4,8,VCC_8*%
%TO.N,/3.3V*%
X83312500Y-123345000D03*
%TD*%
D32*
%TO.P,C10,1*%
%TO.N,/3.3V*%
X88337500Y-119300000D03*
%TO.P,C10,2*%
%TO.N,GND*%
X88337500Y-121200000D03*
%TD*%
D33*
%TO.P,C1,1*%
%TO.N,Net-(J6-Pin_1)*%
X62587500Y-137200000D03*
%TO.P,C1,2*%
%TO.N,GND*%
X62587500Y-135300000D03*
%TD*%
D34*
%TO.P,C9,1*%
%TO.N,/3.3V*%
X55312500Y-87750000D03*
%TO.P,C9,2*%
%TO.N,GND*%
X52362500Y-87750000D03*
%TD*%
D15*
%TO.P,C2,1*%
%TO.N,GND*%
X71537500Y-124750000D03*
%TO.P,C2,2*%
%TO.N,/5.0V*%
X68037500Y-124750000D03*
%TD*%
D35*
%TO.P,J1,1,VBUS_1*%
%TO.N,VBUS*%
X67797500Y-94950000D03*
%TO.P,J1,2,D-_2*%
%TO.N,Net-(J1-D-)*%
X67797500Y-95600000D03*
%TO.P,J1,3,D+_3*%
%TO.N,Net-(J1-D+)*%
X67797500Y-96250000D03*
%TO.P,J1,4,ID_4*%
%TO.N,unconnected-(J1-ID-Pad4)*%
X67797500Y-96900000D03*
%TO.P,J1,5,GND_5*%
%TO.N,GND*%
X67797500Y-97550000D03*
D36*
%TO.P,J1,SH,Shield_SH*%
X65137500Y-92875000D03*
D37*
X67712500Y-93762500D03*
D38*
X65137500Y-95100000D03*
D39*
X65137500Y-97800000D03*
D37*
X67712500Y-98737500D03*
D36*
X65137500Y-99625000D03*
%TD*%
D19*
%TO.P,R7,1*%
%TO.N,GND*%
X92837500Y-126912500D03*
%TO.P,R7,2*%
%TO.N,Net-(U3-IO1)*%
X92837500Y-125087500D03*
%TD*%
D16*
%TO.P,J4,1,Pin_1_1*%
%TO.N,/3.3V*%
X53337500Y-97750000D03*
D17*
%TO.P,J4,2,Pin_2_2*%
%TO.N,/DATA*%
X53337500Y-95210000D03*
%TO.P,J4,3,Pin_3_3*%
%TO.N,GND*%
X53337500Y-92670000D03*
%TD*%
D16*
%TO.P,J2,1,Pin_1_1*%
%TO.N,/3.3V*%
X106337500Y-108000000D03*
D17*
%TO.P,J2,2,Pin_2_2*%
%TO.N,GND*%
X106337500Y-110540000D03*
%TO.P,J2,3,Pin_3_3*%
%TO.N,Net-(J2-Pin_3)*%
X106337500Y-113080000D03*
%TO.P,J2,4,Pin_4_4*%
%TO.N,/UART Debug*%
X106337500Y-115620000D03*
%TD*%
D40*
%TO.P,U1,1,VIN_1*%
%TO.N,Net-(J6-Pin_1)*%
X63712500Y-116475000D03*
%TO.P,U1,2,OUT_2*%
%TO.N,Net-(D1-K)*%
X65412500Y-116475000D03*
%TO.P,U1,3,GND_3*%
%TO.N,GND*%
X67112500Y-116475000D03*
D41*
X67112500Y-107325000D03*
D40*
%TO.P,U1,4,FB_4*%
%TO.N,/5.0V*%
X68812500Y-116475000D03*
%TO.P,U1,5,~{ON}/OFF_5*%
%TO.N,GND*%
X70512500Y-116475000D03*
%TD*%
D19*
%TO.P,R5,1*%
%TO.N,/3.3V*%
X98337500Y-114412500D03*
%TO.P,R5,2*%
%TO.N,/DATA*%
X98337500Y-112587500D03*
%TD*%
D42*
%TO.N,/3.3V*%
X55737500Y-99000000D03*
X56937500Y-99000000D03*
%TO.N,GND*%
X79837500Y-131750000D03*
X58087500Y-103562500D03*
X65087500Y-95000000D03*
X72637500Y-131750000D03*
X57387500Y-94250000D03*
X70587500Y-116500000D03*
X67837500Y-97625000D03*
X65087500Y-99750000D03*
X88337500Y-121250000D03*
X66837500Y-107500000D03*
X77837500Y-92250000D03*
X65337500Y-93000000D03*
X69462500Y-136375000D03*
X83312500Y-127155000D03*
X67337500Y-116500000D03*
X67837500Y-98750000D03*
X69337500Y-131500000D03*
X72637500Y-136250000D03*
X53087500Y-116500000D03*
X92837500Y-127000000D03*
X52462500Y-87875000D03*
X62712500Y-135375000D03*
X67837500Y-93750000D03*
X95337500Y-92250000D03*
X59087500Y-90000000D03*
X65087500Y-97750000D03*
%TO.N,/SCL*%
X78837500Y-113000000D03*
X72587500Y-112750000D03*
%TO.N,Net-(U3-EN)*%
X57337500Y-88350000D03*
X57337500Y-87150000D03*
X57837500Y-95900000D03*
X74837500Y-100750000D03*
X57837500Y-97250000D03*
X73237500Y-101000000D03*
%TO.N,/RS485*%
X85090735Y-124996766D03*
X86696277Y-124908317D03*
%TO.N,Net-(J5-Pin_1)*%
X86837500Y-127000000D03*
X85637500Y-127000000D03*
%TO.N,Net-(U3-IO1)*%
X94737500Y-111750000D03*
X96087500Y-111750000D03*
X92780225Y-119900000D03*
X92837500Y-118700000D03*
%TO.N,/SDA*%
X78087500Y-116000000D03*
X78681893Y-114655607D03*
%TO.N,Net-(U3-IO6)*%
X73237500Y-101800003D03*
X74587500Y-101750000D03*
%TO.N,Net-(U3-IO0)*%
X97837500Y-132250000D03*
X97136765Y-122200735D03*
X97837500Y-130300000D03*
X97136765Y-124299265D03*
X96218015Y-117380515D03*
X95369485Y-116531985D03*
%TO.N,/DATA*%
X76426765Y-96089265D03*
X60180515Y-97093015D03*
X101750000Y-93250000D03*
X58587500Y-96500000D03*
X71087500Y-97000000D03*
X101963235Y-104500000D03*
%TO.N,Net-(U3-IO17)*%
X74437500Y-103750000D03*
X73237500Y-103750000D03*
%TO.N,Net-(U3-IO18)*%
X74583363Y-112254137D03*
X74583363Y-106500000D03*
%TO.N,Net-(J1-D-)*%
X73943235Y-95605735D03*
X76337500Y-106810000D03*
%TO.N,Net-(J1-D+)*%
X75837500Y-107500000D03*
X73237500Y-96923050D03*
%TO.N,Net-(U3-IO21)*%
X84337500Y-117250000D03*
X89087500Y-112000000D03*
%TO.N,/UART Debug*%
X101000000Y-97750000D03*
X97750000Y-97750000D03*
%TO.N,Net-(J2-Pin_3)*%
X97118750Y-95618750D03*
X98500000Y-92250000D03*
%TO.N,/5.0V*%
X64312500Y-131500000D03*
X63087500Y-131500000D03*
%TD*%
%TO.N,/3.3V*%
D43*
X61037500Y-90000000D02*
X58787500Y-87750000D01*
X73837500Y-110659744D02*
X73837500Y-96560000D01*
X76887500Y-93510000D02*
X75127500Y-91750000D01*
X76787500Y-134000000D02*
X76787500Y-134712500D01*
X93387500Y-119300000D02*
X97337500Y-123250000D01*
X96337500Y-130087500D02*
X96337500Y-124250000D01*
X56937500Y-99000000D02*
X57425000Y-99000000D01*
X79677756Y-116500000D02*
X73837500Y-110659744D01*
X104750000Y-108000000D02*
X106337500Y-108000000D01*
X83312500Y-123345000D02*
X84292500Y-123345000D01*
X79937500Y-134000000D02*
X86237500Y-134000000D01*
X57425000Y-99000000D02*
X57675000Y-98750000D01*
X93337500Y-119300000D02*
X93387500Y-119300000D01*
X93337500Y-119300000D02*
X93450000Y-119300000D01*
X76787500Y-134712500D02*
X75250000Y-136250000D01*
X84292500Y-123345000D02*
X88337500Y-119300000D01*
X75250000Y-136250000D02*
X74537500Y-136250000D01*
X76787500Y-132787500D02*
X75750000Y-131750000D01*
X84287499Y-123345000D02*
X83312500Y-123345000D01*
X98337500Y-114412500D02*
X104750000Y-108000000D01*
X78000000Y-134000000D02*
X76787500Y-132787500D01*
X86925000Y-115500000D02*
X86925000Y-117887500D01*
X61037500Y-90000000D02*
X61037500Y-95387500D01*
X82000000Y-115500000D02*
X86925000Y-115500000D01*
X96337500Y-124250000D02*
X97337500Y-123250000D01*
X76787500Y-134000000D02*
X76787500Y-132787500D01*
X97337500Y-123250000D02*
X99237500Y-123250000D01*
X82000000Y-115500000D02*
X81000000Y-116500000D01*
X86237500Y-134000000D02*
X86237500Y-125295001D01*
X88337500Y-119300000D02*
X93337500Y-119300000D01*
X53337500Y-97750000D02*
X54587500Y-99000000D01*
X75127500Y-91750000D02*
X62787500Y-91750000D01*
X73837500Y-96560000D02*
X76887500Y-93510000D01*
X76887500Y-93510000D02*
X77837500Y-93510000D01*
X86237500Y-125295001D02*
X84287499Y-123345000D01*
X79937500Y-134000000D02*
X78000000Y-134000000D01*
X54587500Y-99000000D02*
X55737500Y-99000000D01*
X53337500Y-97750000D02*
X53337500Y-103750000D01*
X86925000Y-117887500D02*
X88337500Y-119300000D01*
X75750000Y-131750000D02*
X74537500Y-131750000D01*
X58787500Y-87750000D02*
X55312500Y-87750000D01*
X61037500Y-95387500D02*
X57675000Y-98750000D01*
X81000000Y-116500000D02*
X79677756Y-116500000D01*
X62787500Y-91750000D02*
X61037500Y-90000000D01*
X93450000Y-119300000D02*
X98337500Y-114412500D01*
%TO.N,GND*%
X52362500Y-87775000D02*
X52462500Y-87875000D01*
X67112500Y-107325000D02*
X67012500Y-107325000D01*
X67012500Y-107325000D02*
X66837500Y-107500000D01*
X95337500Y-92240000D02*
X95337500Y-92250000D01*
X69337500Y-136250000D02*
X69462500Y-136375000D01*
X67825000Y-98737500D02*
X67837500Y-98750000D01*
X67712500Y-98737500D02*
X67825000Y-98737500D01*
X65212500Y-92875000D02*
X65337500Y-93000000D01*
X69287500Y-136250000D02*
X69337500Y-136250000D01*
X65137500Y-92875000D02*
X65212500Y-92875000D01*
X52362500Y-87750000D02*
X52362500Y-87775000D01*
%TO.N,/SCL*%
X82142500Y-112305000D02*
X82142500Y-112250000D01*
X53337500Y-111370000D02*
X52187500Y-110220000D01*
X59252756Y-108750000D02*
X58937500Y-109065256D01*
X78837500Y-113000000D02*
X81392500Y-113000000D01*
X82587500Y-112750000D02*
X82142500Y-112305000D01*
X58937500Y-110434744D02*
X61252756Y-112750000D01*
X54369268Y-107680000D02*
X57399268Y-104650000D01*
X61252756Y-112750000D02*
X72587500Y-112750000D01*
X57399268Y-104650000D02*
X58775732Y-104650000D01*
X58775732Y-104650000D02*
X59252756Y-105127024D01*
X52861154Y-107680000D02*
X54369268Y-107680000D01*
X81392500Y-113000000D02*
X82142500Y-112250000D01*
X86000000Y-112750000D02*
X82587500Y-112750000D01*
X52187500Y-110220000D02*
X52187500Y-108353654D01*
X59252756Y-105127024D02*
X59252756Y-108750000D01*
X82142500Y-112250000D02*
X82142500Y-110000000D01*
X52187500Y-108353654D02*
X52861154Y-107680000D01*
X58937500Y-109065256D02*
X58937500Y-110434744D01*
X88750000Y-115500000D02*
X86000000Y-112750000D01*
%TO.N,Net-(D1-K)*%
X59712500Y-113875000D02*
X64247244Y-113875000D01*
X64247244Y-113875000D02*
X65412500Y-115040256D01*
X57087500Y-116500000D02*
X59712500Y-113875000D01*
X57337500Y-116750000D02*
X57087500Y-116500000D01*
X65412500Y-115040256D02*
X65412500Y-116475000D01*
X57337500Y-121100000D02*
X57337500Y-116750000D01*
%TO.N,Net-(U3-EN)*%
X59287500Y-94250000D02*
X57837500Y-95700000D01*
X73087500Y-101150000D02*
X62650000Y-101150000D01*
X73237500Y-101000000D02*
X73087500Y-101150000D01*
X57677756Y-97250000D02*
X56337500Y-98590256D01*
X57087500Y-76750000D02*
X57087500Y-83250000D01*
X57837500Y-97250000D02*
X57677756Y-97250000D01*
X56337500Y-99248529D02*
X56838971Y-99750000D01*
X56337500Y-98590256D02*
X56337500Y-99248529D01*
X59287500Y-94250000D02*
X57337500Y-92300000D01*
X58500000Y-99750000D02*
X59500000Y-98750000D01*
X57337500Y-92300000D02*
X57337500Y-88350000D01*
X60250000Y-98750000D02*
X59500000Y-98750000D01*
X56838971Y-99750000D02*
X58500000Y-99750000D01*
X62650000Y-101150000D02*
X60250000Y-98750000D01*
X57337500Y-87150000D02*
X57087500Y-86900000D01*
X74837500Y-100750000D02*
X74837500Y-96830000D01*
X74837500Y-96830000D02*
X76887500Y-94780000D01*
X57087500Y-86900000D02*
X57087500Y-83250000D01*
X57837500Y-95700000D02*
X57837500Y-95900000D01*
X76887500Y-94780000D02*
X77837500Y-94780000D01*
%TO.N,Net-(D2-A)*%
X58087500Y-105437500D02*
X58087500Y-109587500D01*
X58087500Y-109587500D02*
X57925000Y-109750000D01*
%TO.N,/RS485*%
X84708969Y-124615000D02*
X85090735Y-124996766D01*
X83312500Y-124615000D02*
X84708969Y-124615000D01*
X88158317Y-124908317D02*
X88337500Y-125087500D01*
X86696277Y-124908317D02*
X88158317Y-124908317D01*
X91337500Y-133710000D02*
X91337500Y-128087500D01*
X93377500Y-135750000D02*
X91337500Y-133710000D01*
X91337500Y-128087500D02*
X88337500Y-125087500D01*
%TO.N,Net-(J5-Pin_1)*%
X86837500Y-127000000D02*
X88250000Y-127000000D01*
X90837500Y-129412500D02*
X88337500Y-126912500D01*
X84522500Y-125885000D02*
X85637500Y-127000000D01*
X83312500Y-125885000D02*
X84522500Y-125885000D01*
X90837500Y-135750000D02*
X90837500Y-129412500D01*
X88250000Y-127000000D02*
X88337500Y-126912500D01*
%TO.N,Net-(U3-IO1)*%
X92837500Y-125087500D02*
X92837500Y-119957275D01*
X92837500Y-119957275D02*
X92780225Y-119900000D01*
X98587500Y-109250000D02*
X98587500Y-96000000D01*
X92837500Y-113650000D02*
X94737500Y-111750000D01*
X93837500Y-129084744D02*
X93837500Y-126087500D01*
X106837500Y-123250000D02*
X99187500Y-130900000D01*
X93837500Y-126087500D02*
X92837500Y-125087500D01*
X96097500Y-93510000D02*
X95337500Y-93510000D01*
X99187500Y-130900000D02*
X95652756Y-130900000D01*
X92837500Y-118700000D02*
X92837500Y-113650000D01*
X96087500Y-111750000D02*
X98587500Y-109250000D01*
X95652756Y-130900000D02*
X93837500Y-129084744D01*
X98587500Y-96000000D02*
X96097500Y-93510000D01*
%TO.N,/SDA*%
X80175000Y-115500000D02*
X74837500Y-110162500D01*
X75877500Y-106210000D02*
X77837500Y-106210000D01*
X57982500Y-113475000D02*
X72837500Y-113475000D01*
X72837500Y-123245552D02*
X77346948Y-127755000D01*
X84937500Y-117001471D02*
X84586029Y-116650000D01*
X77346948Y-127755000D02*
X79378052Y-127755000D01*
X78987500Y-116900000D02*
X78087500Y-116000000D01*
X79378052Y-127755000D02*
X79637500Y-127495552D01*
X74837500Y-110162500D02*
X74837500Y-107250000D01*
X81165685Y-116900000D02*
X78987500Y-116900000D01*
X81415686Y-116650000D02*
X81165685Y-116900000D01*
X84937500Y-118951237D02*
X84937500Y-117001471D01*
X53337500Y-108830000D02*
X57982500Y-113475000D01*
X84586029Y-116650000D02*
X81415686Y-116650000D01*
X79637500Y-127495552D02*
X79637500Y-124251237D01*
X74837500Y-107250000D02*
X75877500Y-106210000D01*
X72837500Y-113475000D02*
X72837500Y-123245552D01*
X78681893Y-114655607D02*
X79330607Y-114655607D01*
X79330607Y-114655607D02*
X80175000Y-115500000D01*
X79637500Y-124251237D02*
X84937500Y-118951237D01*
%TO.N,Net-(U3-IO6)*%
X59750000Y-102337500D02*
X60487500Y-101600000D01*
X74587500Y-101750000D02*
X75087500Y-101750000D01*
X77307500Y-98590000D02*
X77837500Y-98590000D01*
X75087500Y-101750000D02*
X76787500Y-100050000D01*
X60487500Y-101600000D02*
X73037497Y-101600000D01*
X76787500Y-100050000D02*
X76787500Y-99110000D01*
X76787500Y-99110000D02*
X77307500Y-98590000D01*
X59750000Y-109750000D02*
X59750000Y-102337500D01*
X73037497Y-101600000D02*
X73237500Y-101800003D01*
%TO.N,Net-(U3-IO0)*%
X96750000Y-131500000D02*
X96337500Y-131912500D01*
X96675000Y-132250000D02*
X96337500Y-131912500D01*
X96218015Y-121281986D02*
X97136765Y-122200735D01*
X97837500Y-125000000D02*
X97837500Y-130300000D01*
X95337500Y-116500000D02*
X95369485Y-116531985D01*
X95337500Y-108750000D02*
X95337500Y-116500000D01*
X97136765Y-124299265D02*
X97837500Y-125000000D01*
X96218015Y-117380515D02*
X96218015Y-121281986D01*
X97837500Y-132250000D02*
X96675000Y-132250000D01*
X107087500Y-131500000D02*
X96750000Y-131500000D01*
%TO.N,/DATA*%
X77837500Y-96050000D02*
X78787500Y-96050000D01*
X78787500Y-96050000D02*
X83347500Y-91490000D01*
X69500000Y-99587500D02*
X69500000Y-98587500D01*
X54627500Y-96500000D02*
X53337500Y-95210000D01*
X69500000Y-98587500D02*
X71087500Y-97000000D01*
X60180515Y-97930515D02*
X63000000Y-100750000D01*
X63000000Y-100750000D02*
X68337500Y-100750000D01*
X60180515Y-97093015D02*
X60180515Y-97930515D01*
X98337500Y-112587500D02*
X101963235Y-108961765D01*
X101963235Y-108961765D02*
X101963235Y-104500000D01*
X77837500Y-96050000D02*
X76466030Y-96050000D01*
X83347500Y-91490000D02*
X99990000Y-91490000D01*
X68337500Y-100750000D02*
X69500000Y-99587500D01*
X99990000Y-91490000D02*
X101750000Y-93250000D01*
X58587500Y-96500000D02*
X54627500Y-96500000D01*
X76466030Y-96050000D02*
X76426765Y-96089265D01*
%TO.N,Net-(U3-IO17)*%
X78362500Y-127155000D02*
X77387501Y-127155000D01*
X75167500Y-103670000D02*
X77837500Y-103670000D01*
X75087500Y-103750000D02*
X75167500Y-103670000D01*
X74437500Y-103750000D02*
X75087500Y-103750000D01*
X77387501Y-127155000D02*
X73237500Y-123004999D01*
X73237500Y-123004999D02*
X73237500Y-103750000D01*
%TO.N,Net-(U3-IO18)*%
X74583363Y-106500000D02*
X74583363Y-106004137D01*
X75647500Y-104940000D02*
X77837500Y-104940000D01*
X74583363Y-119565863D02*
X74583363Y-112254137D01*
X74583363Y-106004137D02*
X75647500Y-104940000D01*
X78362500Y-123345000D02*
X74583363Y-119565863D01*
%TO.N,Net-(J1-D-)*%
X77837500Y-107480000D02*
X77067500Y-107480000D01*
X76337500Y-106750000D02*
X76337500Y-106810000D01*
X77067500Y-107480000D02*
X76337500Y-106750000D01*
X73943235Y-95605735D02*
X73937500Y-95600000D01*
X73937500Y-95600000D02*
X67797500Y-95600000D01*
%TO.N,Net-(J1-D+)*%
X75837500Y-108250000D02*
X76337500Y-108750000D01*
X76337500Y-108750000D02*
X77837500Y-108750000D01*
X67797500Y-96250000D02*
X72564450Y-96250000D01*
X72564450Y-96250000D02*
X73237500Y-96923050D01*
X75837500Y-107500000D02*
X75837500Y-108250000D01*
%TO.N,Net-(U3-IO21)*%
X89087500Y-112000000D02*
X89762500Y-111325000D01*
X78362500Y-125885000D02*
X78362500Y-124615000D01*
X89762500Y-111325000D02*
X89762500Y-110000000D01*
X78708052Y-124615000D02*
X84337500Y-118985552D01*
X78362500Y-124615000D02*
X78708052Y-124615000D01*
X84337500Y-118985552D02*
X84337500Y-117250000D01*
%TO.N,/UART Debug*%
X95337500Y-97320000D02*
X97320000Y-97320000D01*
X106337500Y-115620000D02*
X107887500Y-114070000D01*
X107887500Y-100137500D02*
X105500000Y-97750000D01*
X107887500Y-114070000D02*
X107887500Y-100137500D01*
X97320000Y-97320000D02*
X97750000Y-97750000D01*
X105500000Y-97750000D02*
X101000000Y-97750000D01*
%TO.N,Net-(J2-Pin_3)*%
X107487500Y-105237500D02*
X100000000Y-97750000D01*
X100000000Y-97750000D02*
X100000000Y-92750000D01*
X106337500Y-113080000D02*
X107487500Y-111930000D01*
X99500000Y-92250000D02*
X98500000Y-92250000D01*
X96687500Y-96050000D02*
X97118750Y-95618750D01*
X95337500Y-96050000D02*
X96687500Y-96050000D01*
X107487500Y-111930000D02*
X107487500Y-105237500D01*
X100000000Y-92750000D02*
X99500000Y-92250000D01*
%TO.N,/5.0V*%
X67387500Y-125400000D02*
X68037500Y-124750000D01*
X68412500Y-137275000D02*
X67387500Y-136250000D01*
X68037500Y-124750000D02*
X68037500Y-117250000D01*
X57587500Y-131500000D02*
X63087500Y-131500000D01*
X64312500Y-131500000D02*
X67387500Y-131500000D01*
X57337500Y-129400000D02*
X57337500Y-131250000D01*
X78962500Y-137275000D02*
X68412500Y-137275000D01*
X68037500Y-117250000D02*
X68812500Y-116475000D01*
X67387500Y-131750000D02*
X67387500Y-136250000D01*
X57337500Y-131250000D02*
X57587500Y-131500000D01*
X67387500Y-131750000D02*
X67387500Y-125400000D01*
X79937500Y-136300000D02*
X78962500Y-137275000D01*
%TO.N,Net-(J6-Pin_1)*%
X61087500Y-134348529D02*
X63712500Y-131723529D01*
X56587500Y-136750000D02*
X61137500Y-136750000D01*
X56337500Y-135250000D02*
X56337500Y-136500000D01*
X61137500Y-136750000D02*
X61637500Y-136250000D01*
X61637500Y-136250000D02*
X61637500Y-135859744D01*
X61087500Y-135309744D02*
X61087500Y-134348529D01*
X61637500Y-135859744D02*
X61087500Y-135309744D01*
X63712500Y-131723529D02*
X63712500Y-116475000D01*
X62587500Y-137200000D02*
X61637500Y-136250000D01*
X56337500Y-136500000D02*
X56587500Y-136750000D01*
%TD*%
M02*
