%TF.GenerationSoftware,KiCad,Pcbnew,10.0.6*%
%TF.CreationDate,2026-09-30T09:41:38+05:30*%
%TF.ProjectId,PCB,5043422e-6b69-4636-9164-5f7063625858,rev?*%
%TF.SameCoordinates,Original*%
%TF.FileFunction,Copper,L2,Bot*%
%TF.FilePolarity,Positive*%
%FSLAX46Y46*%
G04 Gerber Fmt 4.6, Leading zero omitted, Abs format (unit mm)*
G04 Created by KiCad (PCBNEW 10.0.6) date 2026-09-30 09:41:38*
%MOMM*%
%LPD*%
G01*
G04 APERTURE LIST*
%TA.AperFunction,ComponentPad*%
%ADD10C,1.600000*%
%TD*%
%TA.AperFunction,ComponentPad*%
%ADD11R,1.700000X1.700000*%
%TD*%
%TA.AperFunction,ComponentPad*%
%ADD12C,1.700000*%
%TD*%
%TA.AperFunction,HeatsinkPad*%
%ADD13C,0.600000*%
%TD*%
%TA.AperFunction,ComponentPad*%
%ADD14R,1.800000X1.800000*%
%TD*%
%TA.AperFunction,ComponentPad*%
%ADD15C,1.800000*%
%TD*%
%TA.AperFunction,ComponentPad*%
%ADD16C,2.000000*%
%TD*%
%TA.AperFunction,ViaPad*%
%ADD17C,0.600000*%
%TD*%
%TA.AperFunction,Conductor*%
%ADD18C,0.200000*%
%TD*%
G04 APERTURE END LIST*
D10*
%TO.P,LDR1,1*%
%TO.N,Net-(U3-IO1)*%
X106837500Y-123250000D03*
%TO.P,LDR1,2*%
%TO.N,/3.3V*%
X99237500Y-123250000D03*
%TD*%
D11*
%TO.P,J3,1,Pin_1_1*%
%TO.N,/3.3V*%
X53337500Y-103750000D03*
D12*
%TO.P,J3,2,Pin_2_2*%
%TO.N,GND*%
X53337500Y-106290000D03*
%TO.P,J3,3,Pin_3_3*%
%TO.N,/SDA*%
X53337500Y-108830000D03*
%TO.P,J3,4,Pin_4_4*%
%TO.N,/SCL*%
X53337500Y-111370000D03*
%TD*%
D11*
%TO.P,J5,1,Pin_1_1*%
%TO.N,Net-(J5-Pin_1)*%
X90837500Y-135750000D03*
D12*
%TO.P,J5,2,Pin_2_2*%
%TO.N,/RS485*%
X93377500Y-135750000D03*
%TO.P,J5,3,Pin_3_3*%
%TO.N,GND*%
X95917500Y-135750000D03*
%TD*%
D13*
%TO.P,U3,41,GND_41*%
%TO.N,GND*%
X83687500Y-99260000D03*
X83687500Y-100660000D03*
X84387500Y-98560000D03*
X84387500Y-99960000D03*
X84387500Y-101360000D03*
X85087500Y-99260000D03*
X85087500Y-100660000D03*
X85787500Y-98560000D03*
X85787500Y-99960000D03*
X85787500Y-101360000D03*
X86487500Y-99260000D03*
X86487500Y-100660000D03*
%TD*%
D14*
%TO.P,J6,1,Pin_1_1*%
%TO.N,Net-(J6-Pin_1)*%
X56337500Y-135250000D03*
D15*
%TO.P,J6,2,Pin_2_2*%
%TO.N,GND*%
X53797500Y-135250000D03*
%TD*%
D16*
%TO.P,SW1,1,1_1*%
%TO.N,GND*%
X107087500Y-136000000D03*
X100587500Y-136000000D03*
%TO.P,SW1,2,2_2*%
%TO.N,Net-(U3-IO0)*%
X107087500Y-131500000D03*
X100587500Y-131500000D03*
%TD*%
%TO.P,SW2,1,1_1*%
%TO.N,GND*%
X52587500Y-83250000D03*
X52587500Y-76750000D03*
%TO.P,SW2,2,2_2*%
%TO.N,Net-(U3-EN)*%
X57087500Y-83250000D03*
X57087500Y-76750000D03*
%TD*%
D10*
%TO.P,C2,1*%
%TO.N,GND*%
X71537500Y-124750000D03*
%TO.P,C2,2*%
%TO.N,/5.0V*%
X68037500Y-124750000D03*
%TD*%
D11*
%TO.P,J4,1,Pin_1_1*%
%TO.N,/3.3V*%
X53337500Y-97750000D03*
D12*
%TO.P,J4,2,Pin_2_2*%
%TO.N,/DATA*%
X53337500Y-95210000D03*
%TO.P,J4,3,Pin_3_3*%
%TO.N,GND*%
X53337500Y-92670000D03*
%TD*%
D11*
%TO.P,J2,1,Pin_1_1*%
%TO.N,/3.3V*%
X106337500Y-108000000D03*
D12*
%TO.P,J2,2,Pin_2_2*%
%TO.N,GND*%
X106337500Y-110540000D03*
%TO.P,J2,3,Pin_3_3*%
%TO.N,Net-(J2-Pin_3)*%
X106337500Y-113080000D03*
%TO.P,J2,4,Pin_4_4*%
%TO.N,/UART Debug*%
X106337500Y-115620000D03*
%TD*%
D17*
%TO.N,/3.3V*%
X55737500Y-99000000D03*
X56937500Y-99000000D03*
%TO.N,GND*%
X79837500Y-131750000D03*
X58087500Y-103562500D03*
X65087500Y-95000000D03*
X72637500Y-131750000D03*
X57387500Y-94250000D03*
X70587500Y-116500000D03*
X67837500Y-97625000D03*
X65087500Y-99750000D03*
X88337500Y-121250000D03*
X66837500Y-107500000D03*
X77837500Y-92250000D03*
X65337500Y-93000000D03*
X69462500Y-136375000D03*
X83312500Y-127155000D03*
X67337500Y-116500000D03*
X67837500Y-98750000D03*
X69337500Y-131500000D03*
X72637500Y-136250000D03*
X53087500Y-116500000D03*
X92837500Y-127000000D03*
X52462500Y-87875000D03*
X62712500Y-135375000D03*
X67837500Y-93750000D03*
X95337500Y-92250000D03*
X59087500Y-90000000D03*
X65087500Y-97750000D03*
%TO.N,/SCL*%
X78837500Y-113000000D03*
X72587500Y-112750000D03*
%TO.N,Net-(U3-EN)*%
X57337500Y-88350000D03*
X57337500Y-87150000D03*
X57837500Y-95900000D03*
X74837500Y-100750000D03*
X57837500Y-97250000D03*
X73237500Y-101000000D03*
%TO.N,/RS485*%
X85090735Y-124996766D03*
X86696277Y-124908317D03*
%TO.N,Net-(J5-Pin_1)*%
X86837500Y-127000000D03*
X85637500Y-127000000D03*
%TO.N,Net-(U3-IO1)*%
X94737500Y-111750000D03*
X96087500Y-111750000D03*
X92780225Y-119900000D03*
X92837500Y-118700000D03*
%TO.N,/SDA*%
X78087500Y-116000000D03*
X78681893Y-114655607D03*
%TO.N,Net-(U3-IO6)*%
X73237500Y-101800003D03*
X74587500Y-101750000D03*
%TO.N,Net-(U3-IO0)*%
X97837500Y-132250000D03*
X97136765Y-122200735D03*
X97837500Y-130300000D03*
X97136765Y-124299265D03*
X96218015Y-117380515D03*
X95369485Y-116531985D03*
%TO.N,/DATA*%
X76426765Y-96089265D03*
X60180515Y-97093015D03*
X101750000Y-93250000D03*
X58587500Y-96500000D03*
X71087500Y-97000000D03*
X101963235Y-104500000D03*
%TO.N,Net-(U3-IO17)*%
X74437500Y-103750000D03*
X73237500Y-103750000D03*
%TO.N,Net-(U3-IO18)*%
X74583363Y-112254137D03*
X74583363Y-106500000D03*
%TO.N,Net-(J1-D-)*%
X73943235Y-95605735D03*
X76337500Y-106810000D03*
%TO.N,Net-(J1-D+)*%
X75837500Y-107500000D03*
X73237500Y-96923050D03*
%TO.N,Net-(U3-IO21)*%
X84337500Y-117250000D03*
X89087500Y-112000000D03*
%TO.N,/UART Debug*%
X101000000Y-97750000D03*
X97750000Y-97750000D03*
%TO.N,Net-(J2-Pin_3)*%
X97118750Y-95618750D03*
X98500000Y-92250000D03*
%TO.N,/5.0V*%
X64312500Y-131500000D03*
X63087500Y-131500000D03*
%TD*%
%TO.N,/3.3V*%
D18*
X55737500Y-99000000D02*
X56937500Y-99000000D01*
%TO.N,GND*%
X50337500Y-113750000D02*
X53087500Y-116500000D01*
X58087500Y-103250000D02*
X61587500Y-99750000D01*
X69587500Y-131500000D02*
X69337500Y-131500000D01*
X67337500Y-116500000D02*
X67337500Y-108000000D01*
X52587500Y-83250000D02*
X52587500Y-87750000D01*
X70587500Y-116500000D02*
X67337500Y-116500000D01*
X67837500Y-93750000D02*
X75837500Y-93750000D01*
X57337500Y-94250000D02*
X57387500Y-94250000D01*
X72587500Y-136250000D02*
X69587500Y-136250000D01*
X59087500Y-90000000D02*
X62087500Y-93000000D01*
X65087500Y-97750000D02*
X67587500Y-97750000D01*
X105297500Y-110540000D02*
X106337500Y-110540000D01*
X57837500Y-103500000D02*
X56127500Y-103500000D01*
X61587500Y-99750000D02*
X65087500Y-99750000D01*
X92837500Y-127000000D02*
X88337500Y-122500000D01*
X69087500Y-137750000D02*
X65087500Y-137750000D01*
X71537500Y-124750000D02*
X71537500Y-117200000D01*
X58087500Y-103562500D02*
X58087500Y-103250000D01*
X50337500Y-107500000D02*
X50337500Y-113750000D01*
X71537500Y-130700000D02*
X71537500Y-124750000D01*
X78077500Y-92250000D02*
X84387500Y-98560000D01*
X57900000Y-103562500D02*
X57837500Y-103500000D01*
X77837500Y-92250000D02*
X78077500Y-92250000D01*
X67837500Y-97500000D02*
X67837500Y-98750000D01*
X86487500Y-99260000D02*
X88327500Y-99260000D01*
X88337500Y-122500000D02*
X88337500Y-121250000D01*
X79837500Y-131750000D02*
X78337500Y-130250000D01*
X71537500Y-117200000D02*
X70837500Y-116500000D01*
X53337500Y-92670000D02*
X54917500Y-94250000D01*
X52587500Y-87750000D02*
X52462500Y-87875000D01*
X83337500Y-125901472D02*
X83337500Y-127250000D01*
X54997500Y-134050000D02*
X53797500Y-135250000D01*
X65087500Y-137750000D02*
X64087500Y-136750000D01*
X72587500Y-136250000D02*
X72637500Y-136250000D01*
X78337500Y-130250000D02*
X72837500Y-130250000D01*
X69337500Y-136500000D02*
X69337500Y-137500000D01*
X54917500Y-94250000D02*
X57337500Y-94250000D01*
X62837500Y-135500000D02*
X62587500Y-135250000D01*
X67087500Y-93000000D02*
X67837500Y-93750000D01*
X52587500Y-83250000D02*
X52587500Y-76750000D01*
X62587500Y-135250000D02*
X61387500Y-134050000D01*
X59087500Y-92500000D02*
X59087500Y-90000000D01*
X64087500Y-135500000D02*
X62837500Y-135500000D01*
X70837500Y-116500000D02*
X70587500Y-116500000D01*
X69587500Y-136250000D02*
X69462500Y-136375000D01*
X100337500Y-135750000D02*
X100587500Y-136000000D01*
X72587500Y-130500000D02*
X72587500Y-131750000D01*
X69337500Y-137500000D02*
X69087500Y-137750000D01*
X53337500Y-106290000D02*
X51547500Y-106290000D01*
X92837500Y-132670000D02*
X92837500Y-127000000D01*
X67837500Y-97500000D02*
X67837500Y-97625000D01*
X62087500Y-93000000D02*
X65337500Y-93000000D01*
X72337500Y-131500000D02*
X69587500Y-131500000D01*
X72837500Y-130250000D02*
X72587500Y-130500000D01*
X58087500Y-103562500D02*
X57900000Y-103562500D01*
X65087500Y-99750000D02*
X65087500Y-105750000D01*
X65087500Y-95000000D02*
X65087500Y-97750000D01*
X56127500Y-103500000D02*
X53337500Y-106290000D01*
X52462500Y-87875000D02*
X52337500Y-88000000D01*
X64087500Y-136750000D02*
X64087500Y-135500000D01*
X67587500Y-97750000D02*
X67837500Y-97500000D01*
X52337500Y-88000000D02*
X52337500Y-91670000D01*
X65337500Y-93000000D02*
X67087500Y-93000000D01*
X100587500Y-136000000D02*
X107087500Y-136000000D01*
X65337500Y-94750000D02*
X65087500Y-95000000D01*
X77337500Y-92250000D02*
X77837500Y-92250000D01*
X52337500Y-91670000D02*
X53337500Y-92670000D01*
X83337500Y-127250000D02*
X83337500Y-128250000D01*
X65087500Y-99500000D02*
X65087500Y-99750000D01*
X72587500Y-131750000D02*
X71537500Y-130700000D01*
X88327500Y-99260000D02*
X95337500Y-92250000D01*
X61387500Y-134050000D02*
X54997500Y-134050000D01*
X94587500Y-121250000D02*
X105297500Y-110540000D01*
X95917500Y-135750000D02*
X100337500Y-135750000D01*
X65337500Y-93000000D02*
X65337500Y-94750000D01*
X75837500Y-93750000D02*
X77337500Y-92250000D01*
X72587500Y-131750000D02*
X72637500Y-131750000D01*
X95917500Y-135750000D02*
X92837500Y-132670000D01*
X83337500Y-128250000D02*
X79837500Y-131750000D01*
X87988972Y-121250000D02*
X83337500Y-125901472D01*
X65087500Y-105750000D02*
X66837500Y-107500000D01*
X65087500Y-97750000D02*
X65087500Y-99500000D01*
X88337500Y-121250000D02*
X87988972Y-121250000D01*
X51547500Y-106290000D02*
X50337500Y-107500000D01*
X88337500Y-121250000D02*
X94587500Y-121250000D01*
X66837500Y-107500000D02*
X67337500Y-108000000D01*
X69462500Y-136375000D02*
X69337500Y-136500000D01*
X72587500Y-131750000D02*
X72587500Y-136250000D01*
X83337500Y-127180000D02*
X83312500Y-127155000D01*
X57337500Y-94250000D02*
X59087500Y-92500000D01*
X72587500Y-131750000D02*
X72337500Y-131500000D01*
X83337500Y-127250000D02*
X83337500Y-127180000D01*
%TO.N,/SCL*%
X72587500Y-112750000D02*
X72837500Y-113000000D01*
X72837500Y-113000000D02*
X78837500Y-113000000D01*
%TO.N,Net-(U3-EN)*%
X74587500Y-101000000D02*
X73237500Y-101000000D01*
X57337500Y-88350000D02*
X57337500Y-87150000D01*
X74837500Y-100750000D02*
X74587500Y-101000000D01*
X57837500Y-95900000D02*
X57837500Y-97250000D01*
%TO.N,/RS485*%
X86607828Y-124996766D02*
X85090735Y-124996766D01*
X86696277Y-124908317D02*
X86607828Y-124996766D01*
%TO.N,Net-(J5-Pin_1)*%
X85637500Y-127000000D02*
X86837500Y-127000000D01*
%TO.N,Net-(U3-IO1)*%
X92780225Y-118757275D02*
X92837500Y-118700000D01*
X92780225Y-119900000D02*
X92780225Y-118757275D01*
X94737500Y-111750000D02*
X96087500Y-111750000D01*
%TO.N,/SDA*%
X78087500Y-115250000D02*
X78681893Y-114655607D01*
X78087500Y-116000000D02*
X78087500Y-115250000D01*
%TO.N,Net-(U3-IO6)*%
X73237500Y-101800003D02*
X74537497Y-101800003D01*
X74537497Y-101800003D02*
X74587500Y-101750000D01*
%TO.N,Net-(U3-IO0)*%
X97136765Y-122200735D02*
X97136765Y-124299265D01*
X97837500Y-130300000D02*
X97837500Y-132250000D01*
X95369485Y-116531985D02*
X96218015Y-117380515D01*
%TO.N,/DATA*%
X101963235Y-93463235D02*
X101963235Y-104500000D01*
X59180515Y-97093015D02*
X58587500Y-96500000D01*
X75343235Y-95005735D02*
X73081765Y-95005735D01*
X60180515Y-97093015D02*
X59180515Y-97093015D01*
X76426765Y-96089265D02*
X75343235Y-95005735D01*
X73081765Y-95005735D02*
X71087500Y-97000000D01*
X101750000Y-93250000D02*
X101963235Y-93463235D01*
%TO.N,Net-(U3-IO17)*%
X73237500Y-103750000D02*
X74437500Y-103750000D01*
%TO.N,Net-(U3-IO18)*%
X74583363Y-106500000D02*
X74337500Y-106745863D01*
X74337500Y-112008274D02*
X74583363Y-112254137D01*
X74337500Y-106745863D02*
X74337500Y-112008274D01*
%TO.N,Net-(J1-D-)*%
X76337500Y-98000000D02*
X73943235Y-95605735D01*
X76337500Y-106810000D02*
X76337500Y-98000000D01*
%TO.N,Net-(J1-D+)*%
X75737500Y-99423050D02*
X75737500Y-107400000D01*
X75737500Y-107400000D02*
X75837500Y-107500000D01*
X73237500Y-96923050D02*
X75737500Y-99423050D01*
%TO.N,Net-(U3-IO21)*%
X87337500Y-112000000D02*
X89087500Y-112000000D01*
X84337500Y-117250000D02*
X84337500Y-115000000D01*
X84337500Y-115000000D02*
X87337500Y-112000000D01*
%TO.N,/UART Debug*%
X101000000Y-97750000D02*
X97750000Y-97750000D01*
%TO.N,Net-(J2-Pin_3)*%
X98500000Y-92250000D02*
X97750000Y-93000000D01*
X97750000Y-93000000D02*
X97750000Y-94987500D01*
X97750000Y-94987500D02*
X97118750Y-95618750D01*
%TO.N,/5.0V*%
X63087500Y-131500000D02*
X64312500Y-131500000D01*
%TD*%
M02*
