%TF.GenerationSoftware,KiCad,Pcbnew,10.0.6*%
%TF.CreationDate,2026-09-30T09:41:38+05:30*%
%TF.ProjectId,PCB,5043422e-6b69-4636-9164-5f7063625858,rev?*%
%TF.SameCoordinates,Original*%
%TF.FileFunction,Soldermask,Top*%
%TF.FilePolarity,Negative*%
%FSLAX46Y46*%
G04 Gerber Fmt 4.6, Leading zero omitted, Abs format (unit mm)*
G04 Created by KiCad (PCBNEW 10.0.6) date 2026-09-30 09:41:38*
%MOMM*%
%LPD*%
G01*
G04 APERTURE LIST*
G04 Aperture macros list*
%AMRoundRect*
0 Rectangle with rounded corners*
0 $1 Rounding radius*
0 $2 $3 $4 $5 $6 $7 $8 $9 X,Y pos of 4 corners*
0 Add a 4 corners polygon primitive as box body*
4,1,4,$2,$3,$4,$5,$6,$7,$8,$9,$2,$3,0*
0 Add four circle primitives for the rounded corners*
1,1,$1+$1,$2,$3*
1,1,$1+$1,$4,$5*
1,1,$1+$1,$6,$7*
1,1,$1+$1,$8,$9*
0 Add four rect primitives between the rounded corners*
20,1,$1+$1,$2,$3,$4,$5,0*
20,1,$1+$1,$4,$5,$6,$7,0*
20,1,$1+$1,$6,$7,$8,$9,0*
20,1,$1+$1,$8,$9,$2,$3,0*%
G04 Aperture macros list end*
%ADD10RoundRect,0.250000X0.250000X0.475000X-0.250000X0.475000X-0.250000X-0.475000X0.250000X-0.475000X0*%
%ADD11RoundRect,0.250000X0.262500X0.450000X-0.262500X0.450000X-0.262500X-0.450000X0.262500X-0.450000X0*%
%ADD12RoundRect,0.250000X1.000000X0.650000X-1.000000X0.650000X-1.000000X-0.650000X1.000000X-0.650000X0*%
%ADD13C,2.000000*%
%ADD14RoundRect,0.243750X-0.456250X0.243750X-0.456250X-0.243750X0.456250X-0.243750X0.456250X0.243750X0*%
%ADD15RoundRect,0.250000X-0.450000X0.262500X-0.450000X-0.262500X0.450000X-0.262500X0.450000X0.262500X0*%
%ADD16C,1.600000*%
%ADD17R,1.700000X1.700000*%
%ADD18C,1.700000*%
%ADD19RoundRect,0.250000X-0.262500X-0.450000X0.262500X-0.450000X0.262500X0.450000X-0.262500X0.450000X0*%
%ADD20RoundRect,0.250000X0.450000X-0.262500X0.450000X0.262500X-0.450000X0.262500X-0.450000X-0.262500X0*%
%ADD21C,2.100000*%
%ADD22R,1.500000X0.900000*%
%ADD23R,0.900000X1.500000*%
%ADD24C,0.600000*%
%ADD25R,3.900000X3.900000*%
%ADD26RoundRect,0.250000X-0.250000X-0.475000X0.250000X-0.475000X0.250000X0.475000X-0.250000X0.475000X0*%
%ADD27R,1.800000X1.800000*%
%ADD28C,1.800000*%
%ADD29RoundRect,0.375000X-0.625000X-0.375000X0.625000X-0.375000X0.625000X0.375000X-0.625000X0.375000X0*%
%ADD30RoundRect,0.500000X-0.500000X-1.400000X0.500000X-1.400000X0.500000X1.400000X-0.500000X1.400000X0*%
%ADD31R,3.600000X2.700000*%
%ADD32RoundRect,0.150000X-0.825000X-0.150000X0.825000X-0.150000X0.825000X0.150000X-0.825000X0.150000X0*%
%ADD33RoundRect,0.250000X-0.475000X0.250000X-0.475000X-0.250000X0.475000X-0.250000X0.475000X0.250000X0*%
%ADD34RoundRect,0.250000X0.475000X-0.250000X0.475000X0.250000X-0.475000X0.250000X-0.475000X-0.250000X0*%
%ADD35RoundRect,0.250000X0.325000X0.650000X-0.325000X0.650000X-0.325000X-0.650000X0.325000X-0.650000X0*%
%ADD36RoundRect,0.112500X-0.577500X0.112500X-0.577500X-0.112500X0.577500X-0.112500X0.577500X0.112500X0*%
%ADD37RoundRect,0.250000X-0.400000X0.575000X-0.400000X-0.575000X0.400000X-0.575000X0.400000X0.575000X0*%
%ADD38RoundRect,0.250000X-0.525000X0.462500X-0.525000X-0.462500X0.525000X-0.462500X0.525000X0.462500X0*%
%ADD39RoundRect,0.250000X-0.700000X0.650000X-0.700000X-0.650000X0.700000X-0.650000X0.700000X0.650000X0*%
%ADD40RoundRect,0.250000X-0.700000X0.250000X-0.700000X-0.250000X0.700000X-0.250000X0.700000X0.250000X0*%
%ADD41RoundRect,0.250000X0.300000X-2.050000X0.300000X2.050000X-0.300000X2.050000X-0.300000X-2.050000X0*%
%ADD42RoundRect,0.250002X5.149998X-4.449998X5.149998X4.449998X-5.149998X4.449998X-5.149998X-4.449998X0*%
G04 APERTURE END LIST*
D10*
%TO.C,C5*%
X74537500Y-131750000D03*
X72637500Y-131750000D03*
%TD*%
D11*
%TO.C,R4*%
X88750000Y-115500000D03*
X86925000Y-115500000D03*
%TD*%
D10*
%TO.C,C6*%
X74537500Y-136250000D03*
X72637500Y-136250000D03*
%TD*%
D12*
%TO.C,D1*%
X57087500Y-116500000D03*
X53087500Y-116500000D03*
%TD*%
D11*
%TO.C,R1*%
X59500000Y-98750000D03*
X57675000Y-98750000D03*
%TD*%
D13*
%TO.C,H1*%
X113500000Y-69500000D03*
%TD*%
D14*
%TO.C,D2*%
X58087500Y-103562500D03*
X58087500Y-105437500D03*
%TD*%
D15*
%TO.C,R8*%
X88337500Y-125087500D03*
X88337500Y-126912500D03*
%TD*%
D16*
%TO.C,LDR1*%
X106837500Y-123250000D03*
X99237500Y-123250000D03*
%TD*%
D17*
%TO.C,J3*%
X53337500Y-103750000D03*
D18*
X53337500Y-106290000D03*
X53337500Y-108830000D03*
X53337500Y-111370000D03*
%TD*%
D19*
%TO.C,R6*%
X57925000Y-109750000D03*
X59750000Y-109750000D03*
%TD*%
D17*
%TO.C,J5*%
X90837500Y-135750000D03*
D18*
X93377500Y-135750000D03*
X95917500Y-135750000D03*
%TD*%
D10*
%TO.C,C7*%
X59287500Y-94250000D03*
X57387500Y-94250000D03*
%TD*%
D19*
%TO.C,R3*%
X80175000Y-115500000D03*
X82000000Y-115500000D03*
%TD*%
D20*
%TO.C,R2*%
X96337500Y-131912500D03*
X96337500Y-130087500D03*
%TD*%
D21*
%TO.C,H2*%
X49250000Y-69750000D03*
%TD*%
D22*
%TO.C,U3*%
X77837500Y-92240000D03*
X77837500Y-93510000D03*
X77837500Y-94780000D03*
X77837500Y-96050000D03*
X77837500Y-97320000D03*
X77837500Y-98590000D03*
X77837500Y-99860000D03*
X77837500Y-101130000D03*
X77837500Y-102400000D03*
X77837500Y-103670000D03*
X77837500Y-104940000D03*
X77837500Y-106210000D03*
X77837500Y-107480000D03*
X77837500Y-108750000D03*
D23*
X79602500Y-110000000D03*
X80872500Y-110000000D03*
X82142500Y-110000000D03*
X83412500Y-110000000D03*
X84682500Y-110000000D03*
X85952500Y-110000000D03*
X87222500Y-110000000D03*
X88492500Y-110000000D03*
X89762500Y-110000000D03*
X91032500Y-110000000D03*
X92302500Y-110000000D03*
X93572500Y-110000000D03*
D22*
X95337500Y-108750000D03*
X95337500Y-107480000D03*
X95337500Y-106210000D03*
X95337500Y-104940000D03*
X95337500Y-103670000D03*
X95337500Y-102400000D03*
X95337500Y-101130000D03*
X95337500Y-99860000D03*
X95337500Y-98590000D03*
X95337500Y-97320000D03*
X95337500Y-96050000D03*
X95337500Y-94780000D03*
X95337500Y-93510000D03*
X95337500Y-92240000D03*
D24*
X83687500Y-99260000D03*
X83687500Y-100660000D03*
X84387500Y-98560000D03*
X84387500Y-99960000D03*
X84387500Y-101360000D03*
X85087500Y-99260000D03*
D25*
X85087500Y-99960000D03*
D24*
X85087500Y-100660000D03*
X85787500Y-98560000D03*
X85787500Y-99960000D03*
X85787500Y-101360000D03*
X86487500Y-99260000D03*
X86487500Y-100660000D03*
%TD*%
D26*
%TO.C,C4*%
X67387500Y-136250000D03*
X69287500Y-136250000D03*
%TD*%
D27*
%TO.C,J6*%
X56337500Y-135250000D03*
D28*
X53797500Y-135250000D03*
%TD*%
D13*
%TO.C,SW1*%
X107087500Y-136000000D03*
X100587500Y-136000000D03*
X107087500Y-131500000D03*
X100587500Y-131500000D03*
%TD*%
D29*
%TO.C,U2*%
X79937500Y-131700000D03*
X79937500Y-134000000D03*
D30*
X86237500Y-134000000D03*
D29*
X79937500Y-136300000D03*
%TD*%
D31*
%TO.C,L1*%
X57337500Y-121100000D03*
X57337500Y-129400000D03*
%TD*%
D13*
%TO.C,SW2*%
X52587500Y-83250000D03*
X52587500Y-76750000D03*
X57087500Y-83250000D03*
X57087500Y-76750000D03*
%TD*%
D10*
%TO.C,C8*%
X61037500Y-90000000D03*
X59137500Y-90000000D03*
%TD*%
D26*
%TO.C,C3*%
X67387500Y-131500000D03*
X69287500Y-131500000D03*
%TD*%
D32*
%TO.C,U4*%
X78362500Y-123345000D03*
X78362500Y-124615000D03*
X78362500Y-125885000D03*
X78362500Y-127155000D03*
X83312500Y-127155000D03*
X83312500Y-125885000D03*
X83312500Y-124615000D03*
X83312500Y-123345000D03*
%TD*%
D33*
%TO.C,C10*%
X88337500Y-119300000D03*
X88337500Y-121200000D03*
%TD*%
D34*
%TO.C,C1*%
X62587500Y-137200000D03*
X62587500Y-135300000D03*
%TD*%
D35*
%TO.C,C9*%
X55312500Y-87750000D03*
X52362500Y-87750000D03*
%TD*%
D21*
%TO.C,H3*%
X49000000Y-139750000D03*
%TD*%
D16*
%TO.C,C2*%
X71537500Y-124750000D03*
X68037500Y-124750000D03*
%TD*%
D36*
%TO.C,J1*%
X67797500Y-94950000D03*
X67797500Y-95600000D03*
X67797500Y-96250000D03*
X67797500Y-96900000D03*
X67797500Y-97550000D03*
D37*
X65137500Y-92875000D03*
D38*
X67712500Y-93762500D03*
D39*
X65137500Y-95100000D03*
D40*
X65137500Y-97800000D03*
D38*
X67712500Y-98737500D03*
D37*
X65137500Y-99625000D03*
%TD*%
D20*
%TO.C,R7*%
X92837500Y-126912500D03*
X92837500Y-125087500D03*
%TD*%
D17*
%TO.C,J4*%
X53337500Y-97750000D03*
D18*
X53337500Y-95210000D03*
X53337500Y-92670000D03*
%TD*%
D17*
%TO.C,J2*%
X106337500Y-108000000D03*
D18*
X106337500Y-110540000D03*
X106337500Y-113080000D03*
X106337500Y-115620000D03*
%TD*%
D41*
%TO.C,U1*%
X63712500Y-116475000D03*
X65412500Y-116475000D03*
X67112500Y-116475000D03*
D42*
X67112500Y-107325000D03*
D41*
X68812500Y-116475000D03*
X70512500Y-116475000D03*
%TD*%
D21*
%TO.C,H4*%
X113000000Y-140000000D03*
%TD*%
D20*
%TO.C,R5*%
X98337500Y-114412500D03*
X98337500Y-112587500D03*
%TD*%
M02*
